<?xml version="1.0" encoding="utf-8"?>
<svg version="1.1" id="Ebene_1" x="0px" y="0px" style="enable-background:new 0 0 670 250;" xmlns="http://www.w3.org/2000/svg">
  <polygon fill="#51678C" points="660 120 660 110 660 100 650 100 650 90 650 80 640 80 640 70 640 60 630 60 630 50 630 40 620 40 620 30 620 20 610 20 590 20 590 30 600 30 610 30 610 40 610 50 610 60 620 60 620 70 620 80 630 80 630 90 630 100 640 100 640 110 640 120 650 120 650 130 650 140 650 150 640 150 630 150 620 150 50 150 40 150 30 150 20 150 20 140 20 130 30 130 30 120 30 110 30 100 40 100 40 90 40 80 50 80 50 70 50 60 60 60 60 50 60 40 60 30 70 30 80 30 80 20 70 20 50 20 50 30 50 40 40 40 40 60 30 60 30 80 20 80 20 90 20 100 10 100 10 110 10 120 0 120 0 130 0 140 0 150 0 160 0 170 10 170 10 180 10 190 20 190 20 200 30 200 30 210 30 220 40 220 40 230 40 240 50 240 50 250 60 250 60 240 60 230 50 230 50 220 50 210 40 210 40 200 40 190 30 190 30 180 30 170 30 160 640 160 640 170 640 180 640 190 630 190 630 200 630 210 620 210 620 220 620 230 610 230 610 240 610 250 620 250 620 240 630 240 630 230 630 220 640 220 640 210 640 200 650 200 650 190 660 190 660 180 660 170 670 170 670 160 670 130 670 120"/>
  <rect x="140" y="80" fill="#AFAFAF" width="10" height="10"/>
  <polygon fill="#AFAFAF" points="150 80 160 80 160 70 160 60 150 60 150 70"/>
  <rect x="140" y="50" fill="#AFAFAF" width="10" height="10"/>
  <rect x="100" y="60" fill="#AFAFAF" width="10" height="10"/>
  <polygon fill="#AFAFAF" points="100 70 90 70 90 80 90 90 100 90 100 80"/>
  <polygon fill="#AFAFAF" points="120 90 110 90 100 90 100 100 110 100 120 100 130 100 140 100 140 90 130 90"/>
  <polygon fill="#AFAFAF" points="370 70 360 70 360 80 360 90 370 90 370 80"/>
  <polygon fill="#AFAFAF" points="400 90 390 90 380 90 370 90 370 100 380 100 390 100 400 100 410 100 420 100 420 90 410 90"/>
  <polygon fill="#AFAFAF" points="420 90 430 90 430 80 430 70 420 70 420 80"/>
  <rect x="410" y="60" fill="#AFAFAF" width="10" height="10"/>
  <rect x="370" y="60" fill="#AFAFAF" width="10" height="10"/>
  <polygon fill="#FFFFFF" points="180 210 170 210 170 220 180 220 180 230 200 230 210 230 210 220 210 210 200 210"/>
  <polygon fill="#FFFFFF" points="260 220 270 220 270 230 300 230 300 220 300 210 260 210"/>
  <polygon fill="#FFFFFF" points="380 220 380 230 410 230 410 220 420 220 420 210 380 210"/>
  <polygon fill="#FFFFFF" points="460 220 470 220 470 230 490 230 490 220 500 220 500 210 460 210"/>
  <polygon fill="#6980A3" points="620 170 630 170 640 170 640 160 30 160 30 170 40 170"/>
  <polygon fill="#323232" points="130 20 130 30 120 30 110 30 100 30 100 20 100 10 90 10 90 20 90 30 90 40 100 40 100 50 110 50 110 60 120 60 120 70 120 80 130 80 140 80 140 70 140 60 140 50 140 40 140 30 140 20 140 10 130 10"/>
  <polygon fill="#323232" points="120 10 130 10 130 0 120 0 110 0 100 0 100 10 110 10"/>
  <polygon fill="#323232" points="410 10 420 10 420 0 410 0 400 0 390 0 390 10 400 10"/>
  <polygon fill="#323232" points="420 10 420 20 420 30 390 30 390 20 390 10 380 10 380 20 380 30 380 40 380 50 390 50 390 60 390 70 390 72.5 390 80 400 80 410 80 410 70 410 60 410 50 420 50 420 40 430 40 430 30 430 20 430 10"/>
  <polygon fill="#646464" points="100 70 100 80 100 90 110 90 120 90 130 90 140 90 140 80 130 80 120 80 120 70 120 60 110 60 110 70"/>
  <path fill="#646464" d="M 630 130 L 630 120 L 630 110 L 620 110 L 620 100 L 620 90 L 610 90 L 610 80 L 610 70 L 600 70 L 600 60 L 600 50 L 600 40 L 590 40 L 590 30 L 490 30 L 430 30 L 430 40 L 420 40 L 420 50 L 410 50 L 410 60 L 420 60 L 420 70 L 430 70 L 430 80 L 430 90 L 420 90 L 420 100 L 410 100 L 400 100 L 390 100 L 380 100 L 370 100 L 370 90 L 360 90 L 360 80 L 360 70 L 370 70 L 370 60 L 380 60 L 380 70 L 370 70 L 370 80 L 370 90 L 380 90 L 390 90 L 400 90 L 410 90 L 420 90 L 420 80 L 420 70 L 410 70 L 410 80 L 400 80 L 390 80 L 390 72.5 L 390 70 L 390 60 L 390 50 L 380 50 L 380 40 L 380 30 L 340 30 L 160 30 L 140 30 L 140 40 L 140 50 L 150 50 L 150 60 L 160 60 L 160 70 L 160 80 L 150 80 L 150 90 L 140 90 L 140 100 L 130 100 L 120 100 L 110 100 L 100 100 L 100 90 L 90 90 L 90 80 L 90 70 L 100 70 L 100 60 L 110 60 L 110 50 L 100 50 L 100 40 L 90 40 L 90 30 L 80 30 L 80 40 L 70 40 L 70 50 L 70 60 L 60 60 L 60 70 L 60 80 L 60 90 L 50 90 L 50 100 L 50 110 L 40 110 L 40 120 L 40 130 L 40 140 L 30 140 L 30 150 L 40 150 L 50 150 L 620 150 L 630 150 L 640 150 L 640 140 L 640 130 L 630 130 Z M 220 100 L 210 100 L 210 110 L 190 110 L 190 100 L 180 100 L 180 90 L 190 90 L 190 80 L 210 80 L 210 90 L 220 90 L 220 100 Z M 230 60 L 220 60 L 220 70 L 200 70 L 200 60 L 190 60 L 190 50 L 200 50 L 200 40 L 220 40 L 220 50 L 230 50 L 230 60 Z M 280 100 L 270 100 L 270 110 L 250 110 L 250 100 L 240 100 L 240 90 L 250 90 L 250 80 L 270 80 L 270 90 L 280 90 L 280 100 Z M 280 60 L 270 60 L 270 70 L 250 70 L 250 60 L 240 60 L 240 50 L 250 50 L 250 40 L 270 40 L 270 50 L 280 50 L 280 60 Z M 290 50 L 300 50 L 300 40 L 320 40 L 320 50 L 330 50 L 330 60 L 320 60 L 320 70 L 300 70 L 300 60 L 290 60 L 290 50 Z M 340 100 L 330 100 L 330 110 L 310 110 L 310 100 L 300 100 L 300 90 L 310 90 L 310 80 L 330 80 L 330 90 L 340 90 L 340 100 Z M 450 50 L 460 50 L 460 40 L 480 40 L 480 50 L 490 50 L 490 60 L 480 60 L 480 70 L 460 70 L 460 60 L 450 60 L 450 50 Z M 500 100 L 490 100 L 490 110 L 470 110 L 470 100 L 460 100 L 460 90 L 470 90 L 470 80 L 490 80 L 490 90 L 500 90 L 500 100 Z M 500 50 L 510 50 L 510 40 L 530 40 L 530 50 L 540 50 L 540 60 L 530 60 L 530 70 L 510 70 L 510 60 L 500 60 L 500 50 Z M 550 100 L 540 100 L 540 110 L 520 110 L 520 100 L 510 100 L 510 90 L 520 90 L 520 80 L 540 80 L 540 90 L 550 90 L 550 100 Z M 550 50 L 560 50 L 560 40 L 580 40 L 580 50 L 590 50 L 590 60 L 580 60 L 580 70 L 560 70 L 560 60 L 550 60 L 550 50 Z M 600 100 L 590 100 L 590 110 L 570 110 L 570 100 L 560 100 L 560 90 L 570 90 L 570 80 L 590 80 L 590 90 L 600 90 L 600 100 Z"/>
  <polygon fill="#646464" points="150 70 150 60 140 60 140 70 140 80 150 80"/>
  <path fill="#646464" d="M 40 170 L 40 180 L 50 180 L 50 190 L 50 200 L 60 200 L 60 210 L 60 220 L 70 220 L 70 230 L 70 240 L 80 240 L 80 250 L 590 250 L 590 240 L 600 240 L 600 230 L 600 220 L 610 220 L 610 210 L 610 200 L 620 200 L 620 190 L 620 180 L 630 180 L 630 170 L 620 170 L 40 170 Z M 210 220 L 210 230 L 200 230 L 180 230 L 180 220 L 170 220 L 170 210 L 180 210 L 200 210 L 210 210 L 210 220 Z M 300 220 L 300 230 L 270 230 L 270 220 L 260 220 L 260 210 L 300 210 L 300 220 Z M 420 220 L 410 220 L 410 230 L 380 230 L 380 220 L 380 210 L 420 210 L 420 220 Z M 500 220 L 490 220 L 490 230 L 470 230 L 470 220 L 460 220 L 460 210 L 500 210 L 500 220 Z"/>
  <polygon fill="#646464" points="120 30 130 30 130 20 130 10 120 10 110 10 100 10 100 20 100 30 110 30"/>
  <polygon fill="#646464" points="420 20 420 10 410 10 400 10 390 10 390 20 390 30 420 30"/>
  <polygon fill="#76B4FF" points="460 70 480 70 480 60 490 60 490 50 480 50 480 40 460 40 460 50 450 50 450 60 460 60"/>
  <polygon fill="#76B4FF" points="510 70 530 70 530 60 540 60 540 50 530 50 530 40 510 40 510 50 500 50 500 60 510 60"/>
  <polygon fill="#76B4FF" points="560 70 580 70 580 60 590 60 590 50 580 50 580 40 560 40 560 50 550 50 550 60 560 60"/>
  <polygon fill="#76B4FF" points="590 90 590 80 570 80 570 90 560 90 560 100 570 100 570 110 590 110 590 100 600 100 600 90"/>
  <polygon fill="#76B4FF" points="540 80 520 80 520 90 510 90 510 100 520 100 520 110 540 110 540 100 550 100 550 90 540 90"/>
  <polygon fill="#76B4FF" points="490 80 470 80 470 90 460 90 460 100 470 100 470 110 490 110 490 100 500 100 500 90 490 90"/>
  <polygon fill="#E73635" points="330 90 330 80 310 80 310 90 300 90 300 100 310 100 310 110 330 110 330 100 340 100 340 90"/>
  <polygon fill="#E73635" points="270 80 250 80 250 90 240 90 240 100 250 100 250 110 270 110 270 100 280 100 280 90 270 90"/>
  <polygon fill="#E73635" points="210 80 190 80 190 90 180 90 180 100 190 100 190 110 210 110 210 100 220 100 220 90 210 90"/>
  <polygon fill="#E73635" points="220 40 200 40 200 50 190 50 190 60 200 60 200 70 220 70 220 60 230 60 230 50 220 50"/>
  <polygon fill="#E73635" points="270 40 250 40 250 50 240 50 240 60 250 60 250 70 270 70 270 60 280 60 280 50 270 50"/>
  <polygon fill="#E73635" points="300 70 320 70 320 60 330 60 330 50 320 50 320 40 300 40 300 50 290 50 290 60 300 60"/>
  <polygon fill="#4B4B4B" points="640 120 640 110 640 100 630 100 630 90 630 80 620 80 620 70 620 60 610 60 610 50 610 40 610 30 600 30 590 30 590 40 600 40 600 50 600 60 600 70 610 70 610 80 610 90 620 90 620 100 620 110 630 110 630 120 630 130 640 130 640 140 640 150 650 150 650 140 650 130 650 120"/>
  <polygon fill="#4B4B4B" points="50 70 50 80 40 80 40 90 40 100 30 100 30 110 30 120 30 130 20 130 20 140 20 150 30 150 30 140 40 140 40 130 40 120 40 110 50 110 50 100 50 90 60 90 60 80 60 70 60 60 50 60"/>
  <polygon fill="#4B4B4B" points="60 30 60 40 60 50 60 60 70 60 70 50 70 40 80 40 80 30 70 30"/>
  <polygon fill="#4B4B4B" points="630 180 620 180 620 190 620 200 610 200 610 210 610 220 600 220 600 230 600 240 590 240 590 250 600 250 610 250 610 240 610 230 620 230 620 220 620 210 630 210 630 200 630 190 640 190 640 180 640 170 630 170"/>
  <polygon fill="#4B4B4B" points="70 230 70 220 60 220 60 210 60 200 50 200 50 190 50 180 40 180 40 170 30 170 30 180 30 190 40 190 40 200 40 210 50 210 50 220 50 230 60 230 60 240 60 250 70 250 80 250 80 240 70 240"/>
</svg>