<?xml version="1.0" encoding="utf-8"?>
<svg version="1.1" id="Ebene_1" x="0px" y="0px" style="enable-background:new 0 0 520 570;" xmlns="http://www.w3.org/2000/svg">
  <polygon fill="#FF1400" points="100 290 100 280 90 280 70 280 60 280 60 290 50 290 50 300 50 310 60 310 60 320 100 320 100 310 110 310 110 290"/>
  <polygon fill="#646464" points="490 390 490 400 480 400 480 410 460 410 460 420 450 420 450 430 430 430 430 440 420 440 420 450 400 450 400 460 390 460 390 470 370 470 370 480 360 480 360 490 340 490 340 500 330 500 330 510 310 510 310 520 300 520 300 530 280 530 280 540 260 540 240 540 240 530 220 530 220 520 210 520 210 510 190 510 190 500 180 500 180 490 160 490 160 480 150 480 150 470 130 470 130 460 120 460 120 450 100 450 100 440 90 440 90 430 70 430 70 420 60 420 60 410 40 410 40 400 30 400 30 390 10 390 10 420 30 420 30 430 40 430 40 440 60 440 60 450 70 450 70 460 90 460 90 470 100 470 100 480 120 480 120 490 130 490 130 500 150 500 150 510 160 510 160 520 180 520 180 530 190 530 190 540 210 540 210 550 220 550 220 560 240 560 240 570 260 570 280 570 280 560 300 560 300 550 310 550 310 540 330 540 330 530 340 530 340 520 360 520 360 510 370 510 370 500 390 500 390 490 400 490 400 480 420 480 420 470 430 470 430 460 450 460 450 450 460 450 460 440 480 440 480 430 490 430 490 420 510 420 510 390"/>
  <polygon fill="#4B4B4B" points="200 290 200 310 210 310 220 310 220 320 230 320 240 320 240 330 250 330 260 330 270 330 280 330 280 320 300 320 300 310 310 310 320 310 320 290 310 290 310 280 300 280 300 300 290 300 290 310 280 310 280 300 280 270 280 40 270 40 270 50 260 50 250 50 250 40 240 40 240 300 240 310 230 310 230 300 220 300 220 280 210 280 210 290"/>
  <polygon fill="#4B4B4B" points="350 290 350 280 340 280 330 280 330 270 310 270 310 280 320 280 320 290 330 290 330 310 320 310 320 320 310 320 300 320 300 330 280 330 280 340 270 340 260 340 250 340 240 340 240 330 230 330 220 330 220 320 210 320 200 320 200 310 190 310 190 290 200 290 200 280 210 280 210 270 190 270 190 280 180 280 170 280 170 290 160 290 160 300 160 330 170 330 170 340 170 350 180 350 180 360 190 360 200 360 200 370 230 370 230 380 250 380 250 390 260 390 270 390 270 380 280 380 290 380 290 370 320 370 320 360 330 360 340 360 340 350 350 350 350 340 350 330 360 330 360 300 360 290"/>
  <polygon fill="#7D7D7D" points="510 330 510 340 500 340 490 340 490 350 480 350 480 360 470 360 460 360 460 370 450 370 450 380 430 380 430 390 420 390 420 400 400 400 400 410 390 410 390 420 370 420 370 430 360 430 360 440 350 440 340 440 340 450 330 450 330 460 320 460 310 460 310 470 300 470 300 480 290 480 280 480 270 480 270 490 260 490 250 490 250 480 240 480 230 480 220 480 220 470 210 470 210 460 200 460 190 460 190 450 180 450 180 440 170 440 160 440 160 430 150 430 150 420 130 420 130 410 120 410 120 400 100 400 100 390 90 390 90 380 70 380 70 370 60 370 60 360 50 360 40 360 40 350 30 350 30 340 20 340 10 340 10 330 0 330 0 380 10 380 10 390 30 390 30 400 40 400 40 410 60 410 60 420 70 420 70 430 90 430 90 440 100 440 100 450 120 450 120 460 130 460 130 470 150 470 150 480 160 480 160 490 180 490 180 500 190 500 190 510 210 510 210 520 220 520 220 530 240 530 240 540 260 540 280 540 280 530 300 530 300 520 310 520 310 510 330 510 330 500 340 500 340 490 360 490 360 480 370 480 370 470 390 470 390 460 400 460 400 450 420 450 420 440 430 440 430 430 450 430 450 420 460 420 460 410 480 410 480 400 490 400 490 390 510 390 510 380 520 380 520 330"/>
  <polygon fill="#7D7D7D" points="230 310 240 310 240 300 240 40 230 40 230 30 220 30 220 190 220 220 220 230 220 240 220 270 220 280 220 300 230 300"/>
  <path fill="#323232" d="M 510 300 L 510 290 L 490 290 L 490 280 L 480 280 L 470 280 L 470 270 L 450 270 L 450 260 L 430 260 L 430 250 L 410 250 L 410 240 L 400 240 L 390 240 L 390 230 L 370 230 L 370 220 L 350 220 L 350 210 L 330 210 L 330 200 L 310 200 L 310 190 L 300 190 L 300 30 L 300 20 L 290 20 L 290 10 L 270 10 L 270 0 L 260 0 L 250 0 L 250 10 L 230 10 L 230 20 L 220 20 L 220 30 L 230 30 L 230 40 L 240 40 L 250 40 L 250 50 L 260 50 L 270 50 L 270 40 L 280 40 L 280 270 L 280 300 L 280 310 L 290 310 L 290 300 L 300 300 L 300 280 L 310 280 L 310 270 L 330 270 L 330 280 L 340 280 L 350 280 L 350 290 L 360 290 L 360 300 L 360 330 L 350 330 L 350 340 L 350 350 L 340 350 L 340 360 L 330 360 L 320 360 L 320 370 L 290 370 L 290 380 L 280 380 L 270 380 L 270 390 L 260 390 L 250 390 L 250 380 L 230 380 L 230 370 L 200 370 L 200 360 L 190 360 L 180 360 L 180 350 L 170 350 L 170 340 L 170 330 L 160 330 L 160 300 L 160 290 L 170 290 L 170 280 L 180 280 L 190 280 L 190 270 L 210 270 L 210 280 L 220 280 L 220 270 L 220 240 L 220 230 L 220 220 L 220 190 L 210 190 L 210 200 L 190 200 L 190 210 L 170 210 L 170 220 L 150 220 L 150 230 L 130 230 L 130 240 L 120 240 L 110 240 L 110 250 L 90 250 L 90 260 L 70 260 L 70 270 L 50 270 L 50 280 L 40 280 L 30 280 L 30 290 L 10 290 L 10 300 L 0 300 L 0 310 L 0 330 L 10 330 L 10 340 L 20 340 L 30 340 L 30 350 L 40 350 L 40 360 L 50 360 L 60 360 L 60 370 L 70 370 L 70 380 L 90 380 L 90 390 L 100 390 L 100 400 L 120 400 L 120 410 L 130 410 L 130 420 L 150 420 L 150 430 L 160 430 L 160 440 L 170 440 L 180 440 L 180 450 L 190 450 L 190 460 L 200 460 L 210 460 L 210 470 L 220 470 L 220 480 L 230 480 L 240 480 L 250 480 L 250 490 L 260 490 L 270 490 L 270 480 L 280 480 L 290 480 L 300 480 L 300 470 L 310 470 L 310 460 L 320 460 L 330 460 L 330 450 L 340 450 L 340 440 L 350 440 L 360 440 L 360 430 L 370 430 L 370 420 L 390 420 L 390 410 L 400 410 L 400 400 L 420 400 L 420 390 L 430 390 L 430 380 L 450 380 L 450 370 L 460 370 L 460 360 L 470 360 L 480 360 L 480 350 L 490 350 L 490 340 L 500 340 L 510 340 L 510 330 L 520 330 L 520 310 L 520 300 L 510 300 Z M 60 320 L 60 310 L 50 310 L 50 300 L 50 290 L 60 290 L 60 280 L 70 280 L 90 280 L 100 280 L 100 290 L 110 290 L 110 310 L 100 310 L 100 320 L 60 320 Z"/>
  <polygon fill="#323232" points="250 340 260 340 270 340 280 340 280 330 270 330 260 330 250 330 240 330 240 340"/>
  <polygon fill="#323232" points="230 330 240 330 240 320 230 320 220 320 220 330"/>
  <polygon fill="#323232" points="210 320 220 320 220 310 210 310 200 310 200 320"/>
  <rect x="200" y="280" fill="#323232" width="10" height="10"/>
  <polygon fill="#323232" points="320 320 320 310 310 310 300 310 300 320 310 320"/>
  <rect x="310" y="280" fill="#323232" width="10" height="10"/>
  <rect x="320" y="290" fill="#323232" width="10" height="20"/>
  <rect x="190" y="290" fill="#323232" width="10" height="20"/>
  <rect x="280" y="320" fill="#323232" width="20" height="10"/>
</svg>