<?xml version="1.0" encoding="utf-8"?>
<svg viewBox="0 0 520 570" xmlns="http://www.w3.org/2000/svg">
  <path d="M 60 280 L 100 280 L 100 320 L 60 320 L 60 280 Z M 50 290 L 110 290 L 110 310 L 50 310 L 50 290 Z" fill="#ff1400"/>
  <path d="M 100 280 L 110 280 L 110 290 L 100 290 L 100 280 Z M 40 280 L 50 280 L 50 300 L 40 300 L 40 280 Z M 50 310 L 60 310 L 60 320 L 50 320 L 50 310 Z M 40 300 L 50 300 L 50 310 L 40 310 L 40 300 Z M 30 280 L 40 280 L 40 290 L 30 290 L 30 280 Z M 50 270 L 70 270 L 70 280 L 50 280 L 50 270 Z M 50 280 L 60 280 L 60 290 L 50 290 L 50 280 Z M 10 290 L 40 290 L 40 300 L 10 300 L 10 290 Z M 20 310 L 50 310 L 50 320 L 20 320 L 20 310 Z M 0 300 L 40 300 L 40 310 L 0 310 L 0 300 Z M 0 310 L 20 310 L 20 330 L 0 330 L 0 310 Z M 20 320 L 30 320 L 30 340 L 20 340 L 20 320 Z M 30 320 L 40 320 L 40 350 L 30 350 L 30 320 Z M 40 320 L 50 320 L 50 360 L 40 360 L 40 320 Z M 50 320 L 60 320 L 60 360 L 50 360 L 50 320 Z M 160 330 L 170 330 L 170 340 L 160 340 L 160 330 Z M 180 270 L 190 270 L 190 280 L 180 280 L 180 270 Z M 160 280 L 170 280 L 170 290 L 160 290 L 160 280 Z M 150 300 L 160 300 L 160 340 L 150 340 L 150 300 Z M 170 350 L 180 350 L 180 360 L 170 360 L 170 350 Z M 150 340 L 170 340 L 170 360 L 150 360 L 150 340 Z M 190 220 L 220 220 L 220 230 L 190 230 L 190 220 Z M 170 230 L 220 230 L 220 240 L 170 240 L 170 230 Z M 160 240 L 180 240 L 180 280 L 160 280 L 160 240 Z M 100 310 L 110 310 L 110 320 L 100 320 L 100 310 Z M 110 280 L 120 280 L 120 310 L 110 310 L 110 280 Z M 110 310 L 120 310 L 120 320 L 110 320 L 110 310 Z M 150 240 L 160 240 L 160 300 L 150 300 L 150 240 Z M 90 370 L 120 370 L 120 380 L 90 380 L 90 370 Z M 170 410 L 200 410 L 200 440 L 170 440 L 170 410 Z M 150 360 L 200 360 L 200 410 L 150 410 L 150 360 Z M 60 320 L 120 320 L 120 370 L 60 370 L 60 320 Z M 120 240 L 150 240 L 150 390 L 120 390 L 120 240 Z M 150 420 L 170 420 L 170 430 L 150 430 L 150 420 Z M 130 410 L 170 410 L 170 420 L 130 420 L 130 410 Z M 120 400 L 150 400 L 150 410 L 120 410 L 120 400 Z M 100 390 L 130 390 L 130 400 L 100 400 L 100 390 Z M 130 390 L 150 390 L 150 400 L 130 400 L 130 390 Z M 70 360 L 120 360 L 120 380 L 70 380 L 70 360 Z M 160 430 L 170 430 L 170 440 L 160 440 L 160 430 Z M 190 450 L 200 450 L 200 460 L 190 460 L 190 450 Z M 230 470 L 250 470 L 250 480 L 230 480 L 230 470 Z M 210 460 L 230 460 L 230 470 L 210 470 L 210 460 Z M 200 450 L 210 450 L 210 460 L 200 460 L 200 450 Z M 230 460 L 260 460 L 260 470 L 230 470 L 230 460 Z M 210 450 L 260 450 L 260 460 L 210 460 L 210 450 Z M 180 440 L 260 440 L 260 450 L 180 450 L 180 440 Z M 10 330 L 20 330 L 20 340 L 10 340 L 10 330 Z M 90 380 L 120 380 L 120 390 L 90 390 L 90 380 Z M 250 470 L 270 470 L 270 490 L 250 490 L 250 470 Z M 350 270 L 330 270 L 330 210 L 350 210 L 350 270 Z M 310 270 L 300 270 L 300 190 L 310 190 L 310 270 Z M 330 270 L 310 270 L 310 200 L 330 200 L 330 270 Z M 370 280 L 350 280 L 350 220 L 370 220 L 370 280 Z M 390 280 L 370 280 L 370 230 L 390 230 L 390 280 Z M 410 280 L 390 280 L 390 240 L 410 240 L 410 280 Z M 430 280 L 410 280 L 410 250 L 430 250 L 430 280 Z M 450 280 L 430 280 L 430 260 L 450 260 L 450 280 Z M 300 480 L 290 480 L 290 470 L 300 470 L 300 480 Z M 370 430 L 350 430 L 350 420 L 370 420 L 370 430 Z M 390 420 L 350 420 L 350 410 L 390 410 L 390 420 Z M 400 410 L 370 410 L 370 400 L 400 400 L 400 410 Z M 420 400 L 390 400 L 390 390 L 420 390 L 420 400 Z M 390 400 L 370 400 L 370 390 L 390 390 L 390 400 Z M 450 380 L 400 380 L 400 360 L 450 360 L 450 380 Z M 360 440 L 350 440 L 350 430 L 360 430 L 360 440 Z M 330 460 L 320 460 L 320 450 L 330 450 L 330 460 Z M 290 480 L 270 480 L 270 470 L 290 470 L 290 480 Z M 310 470 L 290 470 L 290 460 L 310 460 L 310 470 Z M 320 460 L 310 460 L 310 450 L 320 450 L 320 460 Z M 270 480 L 260 480 L 260 470 L 270 470 L 270 480 Z M 290 470 L 260 470 L 260 460 L 290 460 L 290 470 Z M 310 460 L 260 460 L 260 450 L 310 450 L 310 460 Z M 340 450 L 260 450 L 260 440 L 340 440 L 340 450 Z M 510 340 L 500 340 L 500 330 L 510 330 L 510 340 Z M 430 390 L 400 390 L 400 380 L 430 380 L 430 390 Z M 460 320 L 420 320 L 420 280 L 460 280 L 460 320 Z M 470 310 L 410 310 L 410 290 L 470 290 L 470 310 Z M 420 290 L 410 290 L 410 280 L 420 280 L 420 290 Z M 480 300 L 470 300 L 470 280 L 480 280 L 480 300 Z M 470 320 L 460 320 L 460 310 L 470 310 L 470 320 Z M 480 310 L 470 310 L 470 300 L 480 300 L 480 310 Z M 490 290 L 480 290 L 480 280 L 490 280 L 490 290 Z M 470 280 L 450 280 L 450 270 L 470 270 L 470 280 Z M 470 290 L 460 290 L 460 280 L 470 280 L 470 290 Z M 510 300 L 480 300 L 480 290 L 510 290 L 510 300 Z M 500 320 L 470 320 L 470 310 L 500 310 L 500 320 Z M 520 310 L 480 310 L 480 300 L 520 300 L 520 310 Z M 520 330 L 500 330 L 500 310 L 520 310 L 520 330 Z M 500 340 L 490 340 L 490 320 L 500 320 L 500 340 Z M 490 350 L 480 350 L 480 320 L 490 320 L 490 350 Z M 480 360 L 470 360 L 470 320 L 480 320 L 480 360 Z M 470 360 L 460 360 L 460 320 L 470 320 L 470 360 Z M 360 340 L 350 340 L 350 330 L 360 330 L 360 340 Z M 340 280 L 330 280 L 330 270 L 340 270 L 340 280 Z M 360 290 L 350 290 L 350 280 L 360 280 L 360 290 Z M 370 340 L 360 340 L 360 300 L 370 300 L 370 340 Z M 350 360 L 340 360 L 340 350 L 350 350 L 350 360 Z M 370 360 L 350 360 L 350 340 L 370 340 L 370 360 Z M 330 230 L 300 230 L 300 220 L 330 220 L 330 230 Z M 350 240 L 300 240 L 300 230 L 350 230 L 350 240 Z M 360 280 L 340 280 L 340 240 L 360 240 L 360 280 Z M 420 320 L 410 320 L 410 310 L 420 310 L 420 320 Z M 410 310 L 400 310 L 400 280 L 410 280 L 410 310 Z M 410 320 L 400 320 L 400 310 L 410 310 L 410 320 Z M 370 300 L 360 300 L 360 240 L 370 240 L 370 300 Z M 430 380 L 400 380 L 400 370 L 430 370 L 430 380 Z M 350 440 L 320 440 L 320 410 L 350 410 L 350 440 Z M 320 440 L 260 440 L 260 370 L 320 370 L 320 440 Z M 370 410 L 320 410 L 320 360 L 370 360 L 370 410 Z M 460 370 L 400 370 L 400 320 L 460 320 L 460 370 Z M 400 390 L 370 390 L 370 240 L 400 240 L 400 390 Z M 170 210 L 190 210 L 190 270 L 170 270 L 170 210 Z M 210 190 L 220 190 L 220 270 L 210 270 L 210 190 Z M 190 200 L 210 200 L 210 270 L 190 270 L 190 200 Z M 150 220 L 170 220 L 170 280 L 150 280 L 150 220 Z M 130 230 L 150 230 L 150 280 L 130 280 L 130 230 Z M 110 240 L 130 240 L 130 280 L 110 280 L 110 240 Z M 90 250 L 110 250 L 110 280 L 90 280 L 90 250 Z M 70 260 L 90 260 L 90 280 L 70 280 L 70 260 Z M 200 370 L 260 370 L 260 440 L 200 440 L 200 370 Z M 250 300 L 280 300 L 280 380 L 250 380 L 250 300 Z M 180 350 L 190 350 L 190 360 L 180 360 L 180 350 Z M 220 470 L 230 470 L 230 480 L 220 480 L 220 470 Z" fill="#323232"/>
  <path d="M 0 330 L 10 330 L 10 380 L 0 380 L 0 330 Z M 10 340 L 30 340 L 30 390 L 10 390 L 10 340 Z M 30 350 L 40 350 L 40 400 L 30 400 L 30 350 Z M 40 360 L 60 360 L 60 410 L 40 410 L 40 360 Z M 60 370 L 70 370 L 70 420 L 60 420 L 60 370 Z M 70 380 L 90 380 L 90 430 L 70 430 L 70 380 Z M 90 390 L 100 390 L 100 440 L 90 440 L 90 390 Z M 100 400 L 120 400 L 120 450 L 100 450 L 100 400 Z M 120 410 L 130 410 L 130 460 L 120 460 L 120 410 Z M 130 420 L 150 420 L 150 470 L 130 470 L 130 420 Z M 150 430 L 160 430 L 160 480 L 150 480 L 150 430 Z M 160 440 L 180 440 L 180 490 L 160 490 L 160 440 Z M 180 450 L 190 450 L 190 500 L 180 500 L 180 450 Z M 190 460 L 210 460 L 210 510 L 190 510 L 190 460 Z M 210 470 L 220 470 L 220 520 L 210 520 L 210 470 Z M 220 480 L 240 480 L 240 530 L 220 530 L 220 480 Z M 240 480 L 260 480 L 260 540 L 240 540 L 240 480 Z M 280 540 L 260 540 L 260 480 L 280 480 L 280 540 Z M 300 530 L 280 530 L 280 480 L 300 480 L 300 530 Z M 310 520 L 300 520 L 300 470 L 310 470 L 310 520 Z M 330 510 L 310 510 L 310 460 L 330 460 L 330 510 Z M 340 500 L 330 500 L 330 450 L 340 450 L 340 500 Z M 360 490 L 340 490 L 340 440 L 360 440 L 360 490 Z M 370 480 L 360 480 L 360 430 L 370 430 L 370 480 Z M 390 470 L 370 470 L 370 420 L 390 420 L 390 470 Z M 400 460 L 390 460 L 390 410 L 400 410 L 400 460 Z M 420 450 L 400 450 L 400 400 L 420 400 L 420 450 Z M 430 440 L 420 440 L 420 390 L 430 390 L 430 440 Z M 450 430 L 430 430 L 430 380 L 450 380 L 450 430 Z M 460 420 L 450 420 L 450 370 L 460 370 L 460 420 Z M 480 410 L 460 410 L 460 360 L 480 360 L 480 410 Z M 490 400 L 480 400 L 480 350 L 490 350 L 490 400 Z M 510 390 L 490 390 L 490 340 L 510 340 L 510 390 Z M 520 380 L 510 380 L 510 330 L 520 330 L 520 380 Z" fill="#7d7d7d"/>
  <path d="M 10 390 L 30 390 L 30 420 L 10 420 L 10 390 Z M 30 400 L 40 400 L 40 430 L 30 430 L 30 400 Z M 40 410 L 60 410 L 60 440 L 40 440 L 40 410 Z M 70 430 L 90 430 L 90 460 L 70 460 L 70 430 Z M 60 420 L 70 420 L 70 450 L 60 450 L 60 420 Z M 90 440 L 100 440 L 100 470 L 90 470 L 90 440 Z M 100 450 L 120 450 L 120 480 L 100 480 L 100 450 Z M 120 460 L 130 460 L 130 490 L 120 490 L 120 460 Z M 130 470 L 150 470 L 150 500 L 130 500 L 130 470 Z M 150 480 L 160 480 L 160 510 L 150 510 L 150 480 Z M 160 490 L 180 490 L 180 520 L 160 520 L 160 490 Z M 180 500 L 190 500 L 190 530 L 180 530 L 180 500 Z M 190 510 L 210 510 L 210 540 L 190 540 L 190 510 Z M 210 520 L 220 520 L 220 550 L 210 550 L 210 520 Z M 220 530 L 240 530 L 240 560 L 220 560 L 220 530 Z M 240 540 L 260 540 L 260 570 L 240 570 L 240 540 Z M 280 570 L 260 570 L 260 540 L 280 540 L 280 570 Z M 300 560 L 280 560 L 280 530 L 300 530 L 300 560 Z M 310 550 L 300 550 L 300 520 L 310 520 L 310 550 Z M 330 540 L 310 540 L 310 510 L 330 510 L 330 540 Z M 340 530 L 330 530 L 330 500 L 340 500 L 340 530 Z M 360 520 L 340 520 L 340 490 L 360 490 L 360 520 Z M 370 510 L 360 510 L 360 480 L 370 480 L 370 510 Z M 390 500 L 370 500 L 370 470 L 390 470 L 390 500 Z M 400 490 L 390 490 L 390 460 L 400 460 L 400 490 Z M 420 480 L 400 480 L 400 450 L 420 450 L 420 480 Z M 430 470 L 420 470 L 420 440 L 430 440 L 430 470 Z M 450 460 L 430 460 L 430 430 L 450 430 L 450 460 Z M 460 450 L 450 450 L 450 420 L 460 420 L 460 450 Z M 480 440 L 460 440 L 460 410 L 480 410 L 480 440 Z M 490 430 L 480 430 L 480 400 L 490 400 L 490 430 Z M 510 420 L 490 420 L 490 390 L 510 390 L 510 420 Z" fill="#646464"/>
  <path d="M 210 270 L 230 270 L 230 360 L 210 360 L 210 270 Z M 240 40 L 260 40 L 260 320 L 240 320 L 240 40 Z M 280 320 L 260 320 L 260 40 L 280 40 L 280 320 Z M 160 290 L 170 290 L 170 330 L 160 330 L 160 290 Z M 170 280 L 190 280 L 190 350 L 170 350 L 170 280 Z M 190 270 L 210 270 L 210 360 L 190 360 L 190 270 Z M 330 360 L 310 360 L 310 270 L 330 270 L 330 360 Z M 350 350 L 330 350 L 330 280 L 350 280 L 350 350 Z M 360 330 L 350 330 L 350 290 L 360 290 L 360 330 Z M 340 360 L 330 360 L 330 350 L 340 350 L 340 360 Z M 310 360 L 280 360 L 280 270 L 310 270 L 310 360 Z M 320 370 L 280 370 L 280 360 L 320 360 L 320 370 Z M 290 380 L 270 380 L 270 370 L 290 370 L 290 380 Z M 270 390 L 250 390 L 250 310 L 270 310 L 270 390 Z M 230 300 L 260 300 L 260 380 L 230 380 L 230 300 Z M 200 360 L 230 360 L 230 370 L 200 370 L 200 360 Z" fill="#4b4b4b"/>
  <path d="M 220 280 L 210 280 L 210 270 L 220 270 L 220 280 Z M 210 290 L 200 290 L 200 280 L 210 280 L 210 290 Z M 200 310 L 190 310 L 190 290 L 200 290 L 200 310 Z M 220 320 L 200 320 L 200 310 L 220 310 L 220 320 Z M 240 330 L 220 330 L 220 320 L 240 320 L 240 330 Z M 280 340 L 240 340 L 240 330 L 280 330 L 280 340 Z M 300 330 L 280 330 L 280 320 L 300 320 L 300 330 Z M 320 320 L 300 320 L 300 310 L 320 310 L 320 320 Z M 330 310 L 320 310 L 320 290 L 330 290 L 330 310 Z M 320 290 L 310 290 L 310 280 L 320 280 L 320 290 Z M 310 280 L 300 280 L 300 270 L 310 270 L 310 280 Z" fill="#323232"/>
  <path d="M 220 30 L 240 30 L 240 300 L 220 300 L 220 30 Z M 230 300 L 240 300 L 240 310 L 230 310 L 230 300 Z" fill="#7d7d7d"/>
  <path d="M 300 300 L 280 300 L 280 30 L 300 30 L 300 300 Z M 280 300 L 290 300 L 290 310 L 280 310 L 280 300 Z M 260 10 L 250 10 L 250 0 L 260 0 L 260 10 Z M 270 10 L 260 10 L 260 0 L 270 0 L 270 10 Z M 290 40 L 260 40 L 260 10 L 290 10 L 290 40 Z M 230 10 L 260 10 L 260 40 L 230 40 L 230 10 Z M 220 20 L 230 20 L 230 30 L 220 30 L 220 20 Z M 290 20 L 300 20 L 300 30 L 290 30 L 290 20 Z M 270 50 L 260 50 L 260 40 L 270 40 L 270 50 Z M 260 50 L 250 50 L 250 40 L 260 40 L 260 50 Z" fill="#323232"/>
</svg>