<?xml version="1.0" encoding="utf-8"?>
<svg version="1.1" id="Ebene_1" x="0px" y="0px" style="enable-background:new 0 0 640 400;" xmlns="http://www.w3.org/2000/svg">
  <style type="text/css">
	.st0{fill:#C80000;}
	.st1{fill:#969696;}
	.st2{fill:#323232;}
	.st3{fill:#646464;}
</style>
  <polygon fill="#C80000" points="50 200 40 200 40 220 50 220 50 210"/>
  <rect x="50" y="210" fill="#C80000" width="10" height="10"/>
  <rect x="60" y="210" fill="#C80000" width="10" height="10"/>
  <rect x="70" y="210" fill="#C80000" width="10" height="10"/>
  <rect x="80" y="210" fill="#C80000" width="10" height="10"/>
  <rect x="80" y="220" fill="#C80000" width="10" height="10"/>
  <rect x="90" y="220" fill="#C80000" width="10" height="10"/>
  <rect x="70" y="220" fill="#C80000" width="10" height="10"/>
  <rect x="60" y="240" fill="#C80000" width="10" height="10"/>
  <rect x="60" y="250" fill="#C80000" width="10" height="10"/>
  <rect x="50" y="240" fill="#C80000" width="10" height="10"/>
  <rect x="70" y="240" fill="#C80000" width="10" height="10"/>
  <rect x="70" y="250" fill="#C80000" width="10" height="10"/>
  <rect x="80" y="250" fill="#C80000" width="10" height="10"/>
  <rect x="90" y="250" fill="#C80000" width="10" height="10"/>
  <polygon fill="#969696" points="360 180 340 180 340 190 320 190 320 200 300 200 300 210 290 210 290 220 270 220 270 230 260 230 260 240 260 250 280 250 290 250 290 240 300 240 300 230 310 230 310 220 330 220 330 210 350 210 350 200 370 200 370 190 390 190 390 180 410 180 410 170 370 170 360 170"/>
  <rect x="40" y="230" fill="#C80000" width="10" height="10"/>
  <rect x="40" y="240" fill="#C80000" width="10" height="10"/>
  <polygon fill="#323232" points="430 260 430 270 440 270 450 270 460 270 460 260 450 260 450 250 440 250 430 250 420 250 420 260"/>
  <polygon fill="#323232" points="500 330 510 330 520 330 520 320 510 320 510 310 500 310 490 310 480 310 480 320 490 320 490 330"/>
  <path fill="#323232" d="M 630 310 L 620 310 L 620 320 L 610 320 L 610 330 L 590 330 L 590 340 L 570 340 L 570 350 L 550 350 L 550 360 L 500 360 L 500 350 L 480 350 L 480 340 L 450 340 L 450 330 L 430 330 L 430 320 L 410 320 L 410 310 L 400 310 L 400 300 L 370 300 L 370 290 L 350 290 L 350 280 L 330 280 L 330 270 L 300 270 L 300 260 L 280 260 L 280 250 L 260 250 L 260 240 L 250 240 L 220 240 L 220 230 L 190 230 L 190 220 L 170 220 L 150 220 L 150 210 L 130 210 L 130 200 L 110 200 L 80 200 L 80 190 L 100 190 L 100 180 L 110 180 L 110 170 L 120 170 L 130 170 L 130 160 L 140 160 L 150 160 L 150 150 L 160 150 L 170 150 L 170 140 L 180 140 L 180 150 L 180 160 L 180 170 L 200 170 L 200 180 L 280 180 L 280 170 L 210 170 L 210 160 L 190 160 L 190 150 L 190 140 L 190 130 L 200 130 L 200 120 L 190 120 L 180 120 L 180 130 L 170 130 L 160 130 L 160 140 L 150 140 L 140 140 L 140 150 L 130 150 L 120 150 L 120 160 L 110 160 L 100 160 L 100 170 L 90 170 L 90 180 L 70 180 L 70 190 L 50 190 L 40 190 L 40 180 L 30 180 L 30 250 L 30 260 L 40 260 L 40 270 L 60 270 L 60 280 L 100 280 L 100 290 L 140 290 L 140 300 L 160 300 L 160 310 L 190 310 L 190 320 L 220 320 L 220 330 L 250 330 L 250 340 L 290 340 L 290 350 L 320 350 L 320 360 L 350 360 L 350 370 L 400 370 L 400 380 L 440 380 L 440 390 L 470 390 L 470 400 L 540 400 L 540 390 L 560 390 L 560 380 L 580 380 L 580 370 L 600 370 L 600 360 L 620 360 L 620 350 L 630 350 L 630 340 L 640 340 L 640 310 L 630 310 Z M 100 260 L 90 260 L 80 260 L 70 260 L 60 260 L 60 250 L 50 250 L 40 250 L 40 240 L 40 230 L 50 230 L 50 240 L 60 240 L 70 240 L 80 240 L 80 250 L 90 250 L 100 250 L 100 260 Z M 100 230 L 90 230 L 80 230 L 70 230 L 70 220 L 60 220 L 50 220 L 40 220 L 40 200 L 50 200 L 50 210 L 60 210 L 70 210 L 80 210 L 90 210 L 90 220 L 100 220 L 100 230 Z"/>
  <polygon fill="#323232" points="210 140 210 150 220 150 220 160 250 160 250 150 260 150 260 140 260 10 250 10 250 140 240 140 240 10 250 10 250 0 220 0 220 10 230 10 230 140 220 140 220 10 210 10 210 20 210 130 200 130 200 140"/>
  <rect x="280" y="140" fill="#323232" width="10" height="10"/>
  <polygon fill="#323232" points="300 170 300 160 300 150 290 150 290 160 280 160 280 170 290 170"/>
  <polygon fill="#323232" points="290 180 280 180 280 190 200 190 180 190 180 180 170 180 170 170 170 160 160 160 160 170 150 170 150 180 150 190 160 190 160 200 170 200 180 200 200 200 210 200 210 210 260 210 260 200 270 200 280 200 290 200 290 190 300 190 310 190 310 180 320 180 320 170 310 170 300 170 300 180"/>
  <polygon fill="#323232" points="50 150 50 160 60 160 60 150 60 140 30 140 30 150"/>
  <polygon fill="#323232" points="30 130 10 130 10 120 0 120 0 130 0 140 30 140"/>
  <polygon fill="#323232" points="520 300 520 310 530 310 540 310 550 310 550 300 540 300 540 290 530 290 520 290 510 290 510 300"/>
  <polygon fill="#323232" points="550 280 550 290 560 290 570 290 580 290 580 280 570 280 570 271 570 270 567.8 270 560 270 550 270 540 270 540 280"/>
  <polygon fill="#323232" points="510 270 520 270 530 270 540 270 540 260 530 260 530 250 520 250 510 250 500 250 500 260 510 260"/>
  <polygon fill="#323232" points="490 270 480 270 470 270 470 280 480 280 480 290 490 290 500 290 510 290 510 280 500 280 500 270"/>
  <polygon fill="#323232" points="470 300 470 290 460 290 450 290 440 290 440 300 450 300 450 310 460 310 470 310 480 310 480 300"/>
  <polygon fill="#323232" points="460 240 460 250 470 250 480 250 490 250 490 240 480 240 480 230 470 230 460 230 450 230 450 240"/>
  <polygon fill="#323232" points="400 280 400 290 410 290 420 290 430 290 430 280 420 280 420 270 410 270 400 270 390 270 390 280"/>
  <polygon fill="#323232" points="360 270 370 270 380 270 390 270 390 260 380 260 380 250 370 250 360 250 350 250 350 260 360 260"/>
  <polygon fill="#323232" points="390 250 400 250 410 250 420 250 420 240 410 240 410 230 400 230 390 230 380 230 380 240 390 240"/>
  <polygon fill="#323232" points="420 230 430 230 440 230 450 230 450 220 440 220 440 210 430 210 420 210 410 210 410 220 420 220"/>
  <path fill="#646464" d="M 630 290 L 630 280 L 610 280 L 610 270 L 590 270 L 590 260 L 570 260 L 570 250 L 550 250 L 550 240 L 540 240 L 540 230 L 520 230 L 520 220 L 500 220 L 500 210 L 470 210 L 470 200 L 450 200 L 450 190 L 430 190 L 430 180 L 410 180 L 390 180 L 390 190 L 370 190 L 370 200 L 350 200 L 350 210 L 330 210 L 330 220 L 310 220 L 310 230 L 300 230 L 300 240 L 290 240 L 290 250 L 280 250 L 280 260 L 300 260 L 300 270 L 330 270 L 330 280 L 350 280 L 350 290 L 370 290 L 370 300 L 400 300 L 400 310 L 410 310 L 410 320 L 430 320 L 430 330 L 450 330 L 450 340 L 480 340 L 480 350 L 500 350 L 500 360 L 550 360 L 550 350 L 570 350 L 570 340 L 590 340 L 590 330 L 610 330 L 610 320 L 620 320 L 620 310 L 630 310 L 640 310 L 640 300 L 640 290 L 630 290 Z M 410 210 L 420 210 L 430 210 L 440 210 L 440 220 L 450 220 L 450 230 L 460 230 L 470 230 L 480 230 L 480 240 L 490 240 L 490 250 L 480 250 L 470 250 L 460 250 L 460 240 L 450 240 L 450 230 L 440 230 L 430 230 L 420 230 L 420 220 L 410 220 L 410 210 Z M 430 290 L 420 290 L 410 290 L 400 290 L 400 280 L 390 280 L 390 270 L 380 270 L 370 270 L 360 270 L 360 260 L 350 260 L 350 250 L 360 250 L 370 250 L 380 250 L 380 260 L 390 260 L 390 270 L 400 270 L 410 270 L 420 270 L 420 280 L 430 280 L 430 290 Z M 420 260 L 420 250 L 410 250 L 400 250 L 390 250 L 390 240 L 380 240 L 380 230 L 390 230 L 400 230 L 410 230 L 410 240 L 420 240 L 420 250 L 430 250 L 440 250 L 450 250 L 450 260 L 460 260 L 460 270 L 450 270 L 440 270 L 430 270 L 430 260 L 420 260 Z M 520 330 L 510 330 L 500 330 L 490 330 L 490 320 L 480 320 L 480 310 L 470 310 L 460 310 L 450 310 L 450 300 L 440 300 L 440 290 L 450 290 L 460 290 L 470 290 L 470 300 L 480 300 L 480 310 L 490 310 L 500 310 L 510 310 L 510 320 L 520 320 L 520 330 Z M 550 310 L 540 310 L 530 310 L 520 310 L 520 300 L 510 300 L 510 290 L 500 290 L 490 290 L 480 290 L 480 280 L 470 280 L 470 270 L 480 270 L 490 270 L 500 270 L 500 280 L 510 280 L 510 290 L 520 290 L 530 290 L 540 290 L 540 300 L 550 300 L 550 310 Z M 580 290 L 570 290 L 560 290 L 550 290 L 550 280 L 540 280 L 540 270 L 530 270 L 520 270 L 510 270 L 510 260 L 500 260 L 500 250 L 510 250 L 520 250 L 530 250 L 530 260 L 540 260 L 540 270 L 550 270 L 560 270 L 567.8 270 L 570 270 L 570 271 L 570 280 L 580 280 L 580 290 Z"/>
  <rect x="240" y="10" fill="#646464" width="10" height="130"/>
  <polygon fill="#646464" points="210 20 210 10 200 10 200 20 200 120 200 130 210 130"/>
  <rect x="220" y="10" fill="#646464" width="10" height="130"/>
  <rect x="210" fill="#646464" width="10" height="10"/>
  <rect x="250" fill="#646464" width="10" height="10"/>
  <polygon fill="#646464" points="300 180 300 170 290 170 280 170 280 180 290 180"/>
  <polygon fill="#646464" points="290 210 300 210 300 200 320 200 320 190 340 190 340 180 360 180 360 170 370 170 370 160 330 160 330 150 300 150 300 160 300 170 310 170 320 170 320 180 310 180 310 190 300 190 290 190 290 200 280 200 270 200 260 200 260 210 210 210 210 200 200 200 180 200 170 200 160 200 160 190 150 190 150 180 150 170 160 170 160 160 170 160 170 170 170 180 180 180 180 190 200 190 280 190 280 180 200 180 200 170 180 170 180 160 180 150 180 140 170 140 170 150 160 150 150 150 150 160 140 160 130 160 130 170 120 170 110 170 110 180 100 180 100 190 80 190 80 200 110 200 130 200 130 210 150 210 150 220 170 220 190 220 190 230 220 230 220 240 250 240 260 240 260 230 270 230 270 220 290 220"/>
  <polygon fill="#646464" points="290 160 290 150 280 150 280 140 270 140 270 10 260 10 260 140 260 150 250 150 250 160 220 160 220 150 210 150 210 140 200 140 200 130 190 130 190 140 190 150 190 160 210 160 210 170 280 170 280 160"/>
  <polygon fill="#646464" points="30 150 30 140 0 140 0 150 20 150 20 160 30 160 50 160 50 150"/>
  <polygon fill="#646464" points="90 170 100 170 100 160 110 160 120 160 120 150 130 150 140 150 140 140 150 140 160 140 160 130 170 130 180 130 180 120 190 120 190 110 170 110 170 100 150 100 150 110 140 110 130 110 130 120 120 120 110 120 110 130 100 130 90 130 90 140 80 140 80 150 70 150 60 150 60 160 50 160 50 170 40 170 40 180 40 190 50 190 70 190 70 180 90 180"/>
</svg>