<?xml version="1.0" encoding="utf-8"?>
<svg version="1.1" id="Ebene_1" x="0px" y="0px" style="enable-background:new 0 0 580 330;" xmlns="http://www.w3.org/2000/svg">
  <rect x="210" y="60" fill="#7D7D7D" width="170" height="52.5"/>
  <polygon fill="#969696" points="210 120 210 135 380 135 380 120 380 112.5 210 112.5"/>
  <polygon fill="#C8C8C8" points="210 180 295 180 380 180 380 135 210 135"/>
  <rect x="90" fill="#2D2D2D" width="60" height="10"/>
  <polygon fill="#2D2D2D" points="490 150 480 150 470 150 470 160 460 160 460 190 460 200 470 200 470 210 480 210 490 210 500 210 510 210 510 200 520 200 520 190 520 160 510 160 510 150 500 150"/>
  <polygon fill="#2D2D2D" points="550 100 550 90 540 90 530 90 520 90 510 90 510 100 500 100 500 130 500 140 510 140 510 150 520 150 530 150 540 150 550 150 550 140 560 140 560 130 560 100"/>
  <path fill="#2D2D2D" d="M 110 120 L 100 120 L 100 110 L 90 110 L 90 100 L 80 100 L 70 100 L 60 100 L 50 100 L 50 110 L 40 110 L 40 120 L 30 120 L 30 130 L 20 130 L 20 140 L 20 160 L 20 170 L 30 170 L 30 180 L 40 180 L 40 190 L 50 190 L 50 200 L 60 200 L 70 200 L 80 200 L 90 200 L 90 190 L 100 190 L 100 180 L 110 180 L 110 170 L 120 170 L 120 130 L 110 130 L 110 120 Z M 110 160 L 100 160 L 80 160 L 80 180 L 80 190 L 60 190 L 60 180 L 60 160 L 40 160 L 30 160 L 30 140 L 40 140 L 60 140 L 60 120 L 60 110 L 80 110 L 80 120 L 80 140 L 90 140 L 100 140 L 110 140 L 110 160 Z"/>
  <path fill="#2D2D2D" d="M 470 90 L 480 90 L 480 80 L 480 70 L 490 70 L 490 60 L 490 55 L 490 50 L 490 45 L 490 40 L 480 40 L 480 30 L 440 30 L 140 30 L 110 30 L 110 40 L 100 40 L 100 70 L 110 70 L 110 90 L 120 90 L 120 120 L 140 120 L 140 180 L 160 180 L 160 220 L 200 220 L 200 240 L 390 240 L 390 220 L 420 220 L 430 220 L 430 180 L 450 180 L 450 120 L 470 120 L 470 90 Z M 140 60 L 130 60 L 130 50 L 140 50 L 140 60 Z M 160 60 L 150 60 L 150 50 L 160 50 L 160 60 Z M 180 60 L 170 60 L 170 50 L 180 50 L 180 60 Z M 370 229.7 L 295 229.7 L 220 229.7 L 220 220 L 290 220 L 295 220 L 370 220 L 370 229.7 Z M 390 60 L 390 120 L 390 180 L 390 190 L 295 190 L 200 190 L 200 180 L 200 120 L 200 60 L 200 50 L 390 50 L 390 60 Z"/>
  <rect x="70" y="220" fill="#2D2D2D" width="10" height="10"/>
  <rect x="70" y="240" fill="#2D2D2D" width="10" height="10"/>
  <rect x="70" y="260" fill="#2D2D2D" width="10" height="10"/>
  <rect x="90" y="220" fill="#2D2D2D" width="10" height="10"/>
  <rect x="90" y="240" fill="#2D2D2D" width="10" height="10"/>
  <rect x="90" y="260" fill="#2D2D2D" width="10" height="10"/>
  <rect x="110" y="220" fill="#2D2D2D" width="10" height="10"/>
  <rect x="110" y="240" fill="#2D2D2D" width="10" height="10"/>
  <rect x="110" y="260" fill="#2D2D2D" width="10" height="10"/>
  <rect x="130" y="220" fill="#2D2D2D" width="10" height="10"/>
  <rect x="130" y="240" fill="#2D2D2D" width="10" height="10"/>
  <rect x="130" y="260" fill="#2D2D2D" width="10" height="10"/>
  <polygon fill="#C80000" points="500 0 490 0 490 10 500 10 510 10 510 0"/>
  <rect x="130" y="50" class="st4" width="10" height="10"/>
  <rect x="150" y="50" fill="#0E6A1D" width="10" height="10"/>
  <rect x="170" y="50" fill="#127FB6" width="10" height="10"/>
  <polygon fill="#5C74CC" points="500 60 500 50 490 50 490 55 490 60 490 70 480 70 480 80 480 90 490 90 500 90 500 80 510 80 510 70 510 60"/>
  <path fill="#4B4B4B" d="M 200 60 L 200 120 L 200 180 L 200 190 L 295 190 L 390 190 L 390 180 L 390 120 L 390 60 L 390 50 L 200 50 L 200 60 Z M 210 135 L 210 120 L 210 112.5 L 210 60 L 380 60 L 380 112.5 L 380 120 L 380 135 L 380 180 L 295 180 L 210 180 L 210 135 Z"/>
  <path fill="#4B4B4B" d="M 570 70 L 570 40 L 560 40 L 560 30 L 550 30 L 550 20 L 520 20 L 520 10 L 510 10 L 500 10 L 490 10 L 150 10 L 90 10 L 60 10 L 60 20 L 30 20 L 30 30 L 20 30 L 20 40 L 10 40 L 10 70 L 0 70 L 0 260 L 10 260 L 10 280 L 20 280 L 20 290 L 60 290 L 60 300 L 100 300 L 100 310 L 120 310 L 120 320 L 150 320 L 150 330 L 430 330 L 430 320 L 460 320 L 460 310 L 480 310 L 480 300 L 520 300 L 520 290 L 560 290 L 560 280 L 570 280 L 570 260 L 580 260 L 580 180 L 580 160 L 580 70 L 570 70 Z M 80 270 L 70 270 L 70 260 L 80 260 L 80 270 Z M 80 250 L 70 250 L 70 240 L 80 240 L 80 250 Z M 80 230 L 70 230 L 70 220 L 80 220 L 80 230 Z M 100 270 L 90 270 L 90 260 L 100 260 L 100 270 Z M 100 250 L 90 250 L 90 240 L 100 240 L 100 250 Z M 100 230 L 90 230 L 90 220 L 100 220 L 100 230 Z M 120 270 L 110 270 L 110 260 L 120 260 L 120 270 Z M 120 250 L 110 250 L 110 240 L 120 240 L 120 250 Z M 120 230 L 110 230 L 110 220 L 120 220 L 120 230 Z M 120 170 L 110 170 L 110 180 L 100 180 L 100 190 L 90 190 L 90 200 L 80 200 L 70 200 L 60 200 L 50 200 L 50 190 L 40 190 L 40 180 L 30 180 L 30 170 L 20 170 L 20 160 L 20 140 L 20 130 L 30 130 L 30 120 L 40 120 L 40 110 L 50 110 L 50 100 L 60 100 L 70 100 L 80 100 L 90 100 L 90 110 L 100 110 L 100 120 L 110 120 L 110 130 L 120 130 L 120 170 Z M 140 270 L 130 270 L 130 260 L 140 260 L 140 270 Z M 140 250 L 130 250 L 130 240 L 140 240 L 140 250 Z M 140 230 L 130 230 L 130 220 L 140 220 L 140 230 Z M 450 120 L 450 180 L 430 180 L 430 220 L 420 220 L 390 220 L 390 240 L 200 240 L 200 220 L 160 220 L 160 180 L 140 180 L 140 120 L 120 120 L 120 90 L 110 90 L 110 70 L 100 70 L 100 40 L 110 40 L 110 30 L 140 30 L 440 30 L 480 30 L 480 40 L 490 40 L 490 45 L 490 50 L 500 50 L 500 60 L 510 60 L 510 70 L 510 80 L 500 80 L 500 90 L 490 90 L 480 90 L 470 90 L 470 120 L 450 120 Z M 560 130 L 560 140 L 550 140 L 550 150 L 540 150 L 530 150 L 520 150 L 510 150 L 510 160 L 520 160 L 520 190 L 520 200 L 510 200 L 510 210 L 500 210 L 490 210 L 480 210 L 470 210 L 470 200 L 460 200 L 460 190 L 460 160 L 470 160 L 470 150 L 480 150 L 490 150 L 500 150 L 510 150 L 510 140 L 500 140 L 500 130 L 500 100 L 510 100 L 510 90 L 520 90 L 530 90 L 540 90 L 550 90 L 550 100 L 560 100 L 560 130 Z"/>
  <polygon fill="#4B4B4B" points="90 140 80 140 80 120 80 110 60 110 60 120 60 140 40 140 30 140 30 160 40 160 60 160 60 180 60 190 80 190 80 180 80 160 100 160 110 160 110 140 100 140"/>
  <polygon fill="#4B4B4B" points="290 220 220 220 220 229.7 295 229.7 370 229.7 370 220 295 220"/>
</svg>