<?xml version="1.0" encoding="utf-8"?>
<svg version="1.1" id="Ebene_1" x="0px" y="0px" style="enable-background:new 0 0 280 480;" xmlns="http://www.w3.org/2000/svg">
  <polygon fill="#4B4B4B" points="60 320 60 300 40 300 40 320 20 320 20 340 40 340 40 360 60 360 60 340 80 340 80 320"/>
  <rect x="180" y="320" fill="#C80000" width="20" height="20"/>
  <rect x="220" y="300" fill="#C80000" width="20" height="20"/>
  <polygon fill="#9CA04C" points="60 120 60 200 220 200 220 60 60 60 60 100"/>
  <rect x="20" y="100" fill="#C80000" width="20" height="20"/>
  <polygon fill="#C8C8C8" points="0 40 0 460 20 460 20 440 20 360 20 340 20 320 20 280 20 220 20 200 20 120 20 100 20 60 20 40 20 20 0 20"/>
  <rect x="20" fill="#C8C8C8" width="240" height="20"/>
  <rect x="20" y="460" fill="#969696" width="180" height="20"/>
  <rect fill="#E1E1E1" width="20" height="20"/>
  <rect x="260" fill="#E1E1E1" width="20" height="20"/>
  <path fill="#AFAFAF" d="M 260 20 L 20 20 L 20 40 L 260 40 L 260 220 L 20 220 L 20 320 L 40 320 L 40 300 L 60 300 L 60 320 L 80 320 L 80 340 L 60 340 L 60 360 L 40 360 L 40 340 L 20 340 L 20 460 L 220 460 L 220 440 L 240 440 L 240 420 L 260 420 L 260 400 L 280 400 L 280 20 L 260 20 Z M 100 400 L 80 400 L 80 380 L 100 380 L 100 400 Z M 160 400 L 140 400 L 140 380 L 160 380 L 160 400 Z M 160 260 L 40 260 L 40 240 L 160 240 L 160 260 Z M 200 340 L 180 340 L 180 320 L 200 320 L 200 340 Z M 240 320 L 220 320 L 220 300 L 240 300 L 240 320 Z"/>
  <rect y="460" fill="#AFAFAF" width="20" height="20"/>
  <path fill="#7D7D7D" d="M 260 220 L 260 40 L 20 40 L 20 100 L 40 100 L 40 120 L 20 120 L 20 220 L 260 220 Z M 60 200 L 60 60 L 220 60 L 220 200 L 60 200 Z"/>
  <polygon fill="#7D7D7D" points="260 400 260 420 240 420 240 440 220 440 220 460 200 460 200 480 220 480 240 480 240 460 260 460 260 440 280 440 280 420 280 400"/>
  <rect x="80" y="380" fill="#7D7D7D" width="20" height="20"/>
  <rect x="140" y="380" fill="#7D7D7D" width="20" height="20"/>
  <rect x="260" y="440" fill="#646464" width="20" height="20"/>
  <rect x="240" y="460" fill="#646464" width="20" height="20"/>
  <rect x="40" y="240" fill="#969696" width="120" height="20"/>
</svg>