<svg xmlns="http://www.w3.org/2000/svg" viewBox="0 0 198.43 340.16"><g id="Ebene_2" data-name="Ebene 2"><g id="Ebene_2-2" data-name="Ebene 2"><polygon fill="#4b4b4b" points="42.52 226.77 42.52 212.6 28.35 212.6 28.35 226.77 14.17 226.77 14.17 240.94 28.35 240.94 28.35 255.12 42.52 255.12 42.52 240.94 56.69 240.94 56.69 226.77 42.52 226.77"/><rect fill="#c80000" x="127.56" y="226.77" width="14.17" height="14.17"/><rect fill="#c80000" x="155.91" y="212.6" width="14.17" height="14.17"/><polygon fill="#9ca04c" points="42.52 85.04 42.52 141.73 155.91 141.73 155.91 42.52 42.52 42.52 42.52 70.87 42.52 85.04"/><rect fill="#c80000" x="14.17" y="70.87" width="14.17" height="14.17"/><polygon fill="#c8c8c8" points="0 28.35 0 325.98 14.17 325.98 14.17 311.81 14.17 255.12 14.17 240.94 14.17 226.77 14.17 198.43 14.17 155.91 14.17 141.73 14.17 85.04 14.17 70.87 14.17 42.52 14.17 28.35 14.17 14.17 0 14.17 0 28.35"/><rect fill="#c8c8c8" x="14.17" width="170.08" height="14.17"/><rect fill="#969696" x="14.17" y="325.98" width="127.56" height="14.17"/><rect fill="#e1e1e1" width="14.17" height="14.17"/><rect fill="#e1e1e1" x="184.25" width="14.17" height="14.17"/><path fill="#afafaf" d="M184.25,14.17H14.17V28.35H184.25V155.91H14.17v70.86H28.35V212.6H42.52v14.17H56.69v14.17H42.52v14.18H28.35V240.94H14.17v85H155.91V311.81h14.17V297.64h14.17V283.46h14.18V14.17ZM70.87,283.46H56.69V269.29H70.87Zm42.52,0H99.21V269.29h14.18Zm0-99.21h-85V170.08h85Zm28.34,56.69H127.56V226.77h14.17Zm28.35-14.17H155.91V212.6h14.17Z"/><rect fill="#afafaf" y="325.98" width="14.17" height="14.17"/><path fill="#7d7d7d" d="M184.25,155.91V28.35H14.17V70.87H28.35V85H14.17v70.87H184.25ZM42.52,141.73V42.52H155.91v99.21Z"/><polygon fill="#7d7d7d" points="184.25 283.46 184.25 297.64 170.08 297.64 170.08 311.81 155.91 311.81 155.91 325.98 141.73 325.98 141.73 340.16 155.91 340.16 170.08 340.16 170.08 325.98 184.25 325.98 184.25 311.81 198.43 311.81 198.43 297.64 198.43 283.46 184.25 283.46"/><rect fill="#7d7d7d" x="56.69" y="269.29" width="14.17" height="14.17"/><rect fill="#7d7d7d" x="99.21" y="269.29" width="14.17" height="14.17"/><rect fill="#646464" x="184.25" y="311.81" width="14.17" height="14.17"/><rect fill="#646464" x="170.08" y="325.98" width="14.17" height="14.17"/><rect fill="#969696" x="28.35" y="170.08" width="85.04" height="14.17"/></g></g></svg>