<?xml version="1.0" encoding="utf-8"?>
<svg version="1.1" id="Ebene_1" x="0px" y="0px" viewBox="0 0 580 330" style="enable-background:new 0 0 580 330;" xmlns="http://www.w3.org/2000/svg">
  <rect x="60" y="160" fill="#969696" width="20" height="20"/>
  <rect x="60" y="120" fill="#969696" width="20" height="20"/>
  <polygon fill="#969696" points="80 160 90 160 100 160 100 140 90 140 80 140"/>
  <rect x="40" y="140" fill="#969696" width="20" height="20"/>
  <rect x="60" y="140" fill="#969696" width="20" height="20"/>
  <rect x="210" y="270" fill="#AFAFAF" width="80" height="10"/>
  <polygon fill="#7D7D7D" points="290 80 160 80 160 150 420 150 420 80"/>
  <rect x="160" y="150" fill="#969696" width="260" height="30"/>
  <polygon fill="#C8C8C8" points="160 240 290 240 420 240 420 180 160 180"/>
  <path fill="#4B4B4B" d="M 430 70 L 430 60 L 420 60 L 420 50 L 290 50 L 160 50 L 160 60 L 150 60 L 150 70 L 140 70 L 140 280 L 150 280 L 150 290 L 160 290 L 170 290 L 180 290 L 180 300 L 200 300 L 220 300 L 230 300 L 240 300 L 240 310 L 290 310 L 340 310 L 340 300 L 350 300 L 360 300 L 380 300 L 400 300 L 400 290 L 410 290 L 420 290 L 430 290 L 430 280 L 440 280 L 440 70 L 430 70 Z M 290 80 L 420 80 L 420 150 L 420 180 L 420 240 L 290 240 L 160 240 L 160 180 L 160 150 L 160 80 L 290 80 Z M 210 270 L 290 270 L 370 270 L 370 280 L 290 280 L 210 280 L 210 270 Z"/>
  <rect x="290" y="270" fill="#AFAFAF" width="80" height="10"/>
  <rect x="20" y="50" fill="#EBEBEB" width="30" height="10"/>
  <polygon fill="#EBEBEB" points="50 50 60 50 80 50 80 40 50 40"/>
  <polygon fill="#EBEBEB" points="90 30 90 40 100 40 110 40 110 30 100 30"/>
  <rect x="10" y="60" fill="#EBEBEB" width="10" height="10"/>
  <polygon fill="#EBEBEB" points="460 20 460 10 450 10 440 10 430 10 430 0 290 0 150 0 150 10 140 10 130 10 120 10 120 20 110 20 110 30 120 30 130 30 130 20 140 20 150 20 290 20 430 20 440 20 450 20 450 30 460 30 470 30 470 20"/>
  <polygon fill="#EBEBEB" points="470 30 470 40 480 40 490 40 490 30 480 30"/>
  <rect x="530" y="50" fill="#EBEBEB" width="30" height="10"/>
  <polygon fill="#EBEBEB" points="500 40 500 50 520 50 530 50 530 40"/>
  <rect x="560" y="60" fill="#EBEBEB" width="10" height="10"/>
  <rect x="110" y="230" fill="#646464" width="10" height="10"/>
  <rect x="110" y="250" fill="#646464" width="10" height="10"/>
  <polygon fill="#646464" points="60 30 30 30 20 30 20 40 10 40 10 50 10 60 20 60 20 50 50 50 50 40 80 40 90 40 90 30 100 30 110 30 110 20 60 20"/>
  <rect x="110" y="10" fill="#646464" width="10" height="10"/>
  <polygon fill="#646464" points="0 120 0 160 10 160 10 120 10 80 10 70 0 70"/>
  <rect x="140" fill="#646464" width="10" height="10"/>
  <polygon fill="#646464" points="570 60 570 50 570 40 560 40 560 30 550 30 520 30 520 20 470 20 470 30 480 30 490 30 490 40 500 40 530 40 530 50 560 50 560 60"/>
  <rect x="460" y="10" fill="#646464" width="10" height="10"/>
  <polygon fill="#646464" points="570 70 570 80 570 120 570 160 580 160 580 120 580 70"/>
  <rect x="430" fill="#646464" width="10" height="10"/>
  <path fill="#DCDCDC" d="M 570 160 L 570 120 L 570 80 L 570 70 L 560 70 L 560 60 L 530 60 L 530 50 L 520 50 L 500 50 L 500 40 L 490 40 L 480 40 L 470 40 L 470 30 L 460 30 L 450 30 L 450 20 L 440 20 L 430 20 L 290 20 L 150 20 L 140 20 L 130 20 L 130 30 L 120 30 L 110 30 L 110 40 L 100 40 L 90 40 L 80 40 L 80 50 L 60 50 L 50 50 L 50 60 L 20 60 L 20 70 L 10 70 L 10 80 L 10 120 L 10 160 L 0 160 L 0 180 L 0 260 L 10 260 L 10 280 L 20 280 L 20 290 L 60 290 L 60 300 L 80 300 L 100 300 L 100 310 L 120 310 L 120 320 L 140 320 L 150 320 L 150 330 L 160 330 L 200 330 L 220 330 L 240 330 L 290 330 L 340 330 L 360 330 L 380 330 L 420 330 L 430 330 L 430 320 L 440 320 L 460 320 L 460 310 L 480 310 L 480 300 L 500 300 L 520 300 L 520 290 L 560 290 L 560 280 L 570 280 L 570 260 L 580 260 L 580 180 L 580 160 L 570 160 Z M 40 160 L 40 140 L 60 140 L 60 120 L 80 120 L 80 140 L 90 140 L 100 140 L 100 160 L 90 160 L 80 160 L 80 180 L 60 180 L 60 160 L 40 160 Z M 120 260 L 110 260 L 110 250 L 120 250 L 120 260 Z M 120 240 L 110 240 L 110 230 L 120 230 L 120 240 Z M 440 280 L 430 280 L 430 290 L 420 290 L 410 290 L 400 290 L 400 300 L 380 300 L 360 300 L 350 300 L 340 300 L 340 310 L 290 310 L 240 310 L 240 300 L 230 300 L 220 300 L 200 300 L 180 300 L 180 290 L 170 290 L 160 290 L 150 290 L 150 280 L 140 280 L 140 70 L 150 70 L 150 60 L 160 60 L 160 50 L 290 50 L 420 50 L 420 60 L 430 60 L 430 70 L 440 70 L 440 280 Z M 490 70 L 490 80 L 480 80 L 480 70 L 490 70 Z M 460 150 L 470 150 L 470 140 L 490 140 L 490 150 L 500 150 L 500 170 L 490 170 L 490 180 L 470 180 L 470 170 L 460 170 L 460 150 Z M 520 160 L 520 150 L 510 150 L 510 130 L 520 130 L 520 120 L 540 120 L 540 130 L 550 130 L 550 150 L 540 150 L 540 160 L 520 160 Z"/>
  <rect x="480" y="70" fill="#009600" width="10" height="10"/>
  <polygon fill="#969696" points="490 150 490 140 470 140 470 150 460 150 460 170 470 170 470 180 490 180 490 170 500 170 500 150"/>
  <polygon fill="#969696" points="540 130 540 120 520 120 520 130 510 130 510 150 520 150 520 160 540 160 540 150 550 150 550 130"/>
</svg>