<?xml version="1.0" encoding="utf-8"?>
<svg version="1.1" id="Ebene_1" x="0px" y="0px" style="enable-background:new 0 0 280 480;" xmlns="http://www.w3.org/2000/svg">
  <rect x="20" y="100" fill="#C80000" width="20" height="20"/>
  <path fill="#F39E23" d="M 260 20 L 260 0 L 20 0 L 20 20 L 20 30 L 30 30 L 30 20 L 250 20 L 250 30 L 260 30 L 260 40 L 260 60 L 260 200 L 260 220 L 250 220 L 250 230 L 225 230 L 225 240 L 55 240 L 55 230 L 30 230 L 30 220 L 20 220 L 20 480 L 240 480 L 240 460 L 260 460 L 260 440 L 280 440 L 280 20 L 260 20 Z M 90 320 L 70 320 L 70 340 L 50 340 L 50 320 L 30 320 L 30 300 L 50 300 L 50 280 L 70 280 L 70 300 L 90 300 L 90 320 Z M 130 400 L 110 400 L 110 390 L 130 390 L 130 400 Z M 170 400 L 150 400 L 150 390 L 170 390 L 170 400 Z M 210 340 L 190 340 L 190 320 L 210 320 L 210 340 Z M 250 320 L 230 320 L 230 300 L 250 300 L 250 320 Z"/>
  <rect x="110" y="390" fill="#323232" width="20" height="10"/>
  <rect x="150" y="390" fill="#323232" width="20" height="10"/>
  <rect x="190" y="320" fill="#323232" width="20" height="20"/>
  <rect x="230" y="300" fill="#323232" width="20" height="20"/>
  <path fill="#323232" d="M 250 30 L 250 20 L 30 20 L 30 30 L 20 30 L 20 40 L 20 60 L 20 100 L 40 100 L 40 120 L 20 120 L 20 200 L 20 220 L 30 220 L 30 230 L 55 230 L 55 240 L 225 240 L 225 230 L 250 230 L 250 220 L 260 220 L 260 200 L 260 60 L 260 40 L 260 30 L 250 30 Z M 220 60 L 220 200 L 60 200 L 60 120 L 60 114.3 L 60 92.9 L 60 60 L 220 60 Z"/>
  <polygon fill="#323232" points="70 280 50 280 50 300 30 300 30 320 50 320 50 340 70 340 70 320 90 320 90 300 70 300"/>
  <polygon fill="#9CA04C" points="220 60 60 60 60 92.9 60 114.3 60 120 60 200 220 200"/>
  <polygon fill="#FFC585" points="20 200 20 120 20 100 20 60 20 40 20 30 20 20 0 20 0 480 20 480 20 220"/>
</svg>