<svg xmlns="http://www.w3.org/2000/svg"><g id="Ebene_2" data-name="Ebene 2"><g id="Ebene_12" data-name="Ebene 12"><polygon fill="#646464" points="630 130 630 110 620 110 620 100 620 90 610 90 610 80 610 70 600 70 600 60 600 50 600 40 590 40 590 30 490 30 420 30 380 30 340 30 160 30 140 30 90 30 80 30 80 40 70 40 70 50 70 60 60 60 60 90 50 90 50 110 40 110 40 130 40 140 30 140 30 150 40 150 50 150 620 150 630 150 640 150 640 130 630 130"/><polygon fill="#51678c" points="660 120 660 110 660 100 650 100 650 90 650 80 640 80 640 70 640 60 630 60 630 50 630 40 620 40 620 30 620 20 610 20 590 20 590 30 610 30 610 40 610 50 610 60 620 60 620 70 620 80 630 80 630 90 630 100 640 100 640 110 640 120 650 120 650 130 650 140 650 150 20 150 20 140 20 130 30 130 30 120 30 110 30 100 40 100 40 90 40 80 50 80 50 70 50 60 60 60 60 50 60 40 60 30 80 30 80 20 70 20 50 20 50 30 50 40 40 40 40 60 30 60 30 80 20 80 20 90 20 100 10 100 10 110 10 120 0 120 0 130 0 140 0 150 0 160 0 170 10 170 10 180 10 190 20 190 20 200 30 200 30 210 30 220 40 220 40 230 40 240 50 240 50 250 60 250 60 240 60 230 50 230 50 220 50 210 40 210 40 200 40 190 30 190 30 180 30 170 640 170 640 180 640 190 630 190 630 200 630 210 620 210 620 220 620 230 610 230 610 240 610 250 620 250 620 240 630 240 630 230 630 220 640 220 640 210 640 200 650 200 650 190 660 190 660 180 660 170 670 170 670 160 670 130 670 120 660 120"/><polygon fill="#646464" points="620 170 40 170 40 180 40 190 50 190 50 200 60 200 60 210 60 220 70 220 70 230 70 240 80 240 80 250 590 250 590 240 600 240 600 230 600 220 610 220 610 210 610 200 620 200 620 190 620 180 630 180 630 170 620 170"/><rect fill="#afafaf" x="140" y="80" width="10" height="10"/><polygon fill="#afafaf" points="150 60 150 70 150 80 160 80 160 70 160 60 150 60"/><rect fill="#646464" x="100" y="10" width="30" height="20"/><polygon fill="#323232" points="130 10 130 20 130 30 120 30 110 30 100 30 100 20 100 10 90 10 90 20 90 30 90 40 100 40 100 50 110 50 110 60 120 60 120 70 120 80 130 80 140 80 140 70 140 60 140 50 140 40 140 30 140 20 140 10 130 10"/><polygon fill="#323232" points="120 10 130 10 130 0 120 0 110 0 100 0 100 10 110 10 120 10"/><rect fill="#afafaf" x="140" y="50" width="10" height="10"/><rect fill="#646464" x="140" y="40" width="10" height="10"/><rect fill="#78798b" x="600" y="240" width="10" height="10"/><polygon fill="#4b4b4b" points="640 120 640 110 640 100 630 100 630 90 630 80 620 80 620 70 620 60 610 60 610 50 610 40 610 30 600 30 590 30 590 40 600 40 600 50 600 60 600 70 610 70 610 80 610 90 620 90 620 100 620 110 630 110 630 120 630 130 640 130 640 140 640 150 650 150 650 140 650 130 650 120 640 120"/><polygon fill="#4b4b4b" points="50 70 50 80 40 80 40 90 40 100 30 100 30 110 30 120 30 130 20 130 20 140 20 150 30 150 30 140 40 140 40 130 40 120 40 110 50 110 50 100 50 90 60 90 60 80 60 70 60 60 50 60 50 70"/><polygon fill="#4b4b4b" points="70 30 60 30 60 40 60 50 60 60 70 60 70 50 70 40 80 40 80 30 70 30"/><rect fill="#afafaf" x="100" y="60" width="10" height="10"/><polygon fill="#afafaf" points="90 70 90 80 90 90 100 90 100 80 100 70 90 70"/><polygon fill="#afafaf" points="130 90 120 90 110 90 100 90 100 100 110 100 120 100 130 100 140 100 140 90 130 90"/><polygon fill="#afafaf" points="360 70 360 80 360 90 370 90 370 80 370 70 360 70"/><polygon fill="#afafaf" points="410 90 400 90 390 90 380 90 370 90 370 100 380 100 390 100 400 100 410 100 420 100 420 90 410 90"/><polygon fill="#afafaf" points="420 70 420 80 420 90 430 90 430 80 430 70 420 70"/><rect fill="#afafaf" x="410" y="60" width="10" height="10"/><rect fill="#afafaf" x="370" y="60" width="10" height="10"/><rect fill="#646464" x="440" y="50" width="10" height="10"/><rect fill="#646464" x="400" y="60" width="10" height="20"/><rect fill="#646464" x="410" y="40" width="10" height="10"/><polygon fill="#ffffff" points="200 210 180 210 170 210 170 220 180 220 180 230 200 230 210 230 210 220 210 210 200 210"/><polygon fill="#ffffff" points="260 210 260 220 270 220 270 230 300 230 300 220 300 210 260 210"/><polygon fill="#ffffff" points="380 210 380 220 380 230 410 230 410 220 420 220 420 210 380 210"/><polygon fill="#ffffff" points="460 210 460 220 470 220 470 230 490 230 490 220 500 220 500 210 460 210"/><rect fill="#6980a3" x="30" y="160" width="610" height="10"/><polygon fill="#323232" points="410 10 420 10 420 0 410 0 400 0 390 0 390 10 400 10 410 10"/><polygon fill="#323232" points="420 10 420 20 420 30 390 30 390 20 390 10 380 10 380 20 380 30 380 40 380 50 390 50 390 60 390 70 390 72.5 390 80 400 80 410 80 410 50 420 50 420 40 430 40 430 30 430 20 430 10 420 10"/><rect fill="#646464" x="390" y="10" width="30" height="20"/><polygon fill="#76b4ff" points="480 50 480 40 460 40 460 50 450 50 450 60 460 60 460 70 480 70 480 60 490 60 490 50 480 50"/><polygon fill="#76b4ff" points="530 50 530 40 510 40 510 50 500 50 500 60 510 60 510 70 530 70 530 60 540 60 540 50 530 50"/><polygon fill="#76b4ff" points="580 50 580 40 560 40 560 50 550 50 550 60 560 60 560 70 580 70 580 60 590 60 590 50 580 50"/><polygon fill="#76b4ff" points="590 90 590 80 570 80 570 90 560 90 560 100 570 100 570 110 590 110 590 100 600 100 600 90 590 90"/><polygon fill="#76b4ff" points="540 90 540 80 520 80 520 90 510 90 510 100 520 100 520 110 540 110 540 100 550 100 550 90 540 90"/><polygon fill="#76b4ff" points="490 90 490 80 470 80 470 90 460 90 460 100 470 100 470 110 490 110 490 100 500 100 500 90 490 90"/><polygon fill="#e73635" points="330 90 330 80 310 80 310 90 300 90 300 100 310 100 310 110 330 110 330 100 340 100 340 90 330 90"/><polygon fill="#e73635" points="270 90 270 80 250 80 250 90 240 90 240 100 250 100 250 110 270 110 270 100 280 100 280 90 270 90"/><polygon fill="#e73635" points="210 90 210 80 190 80 190 90 180 90 180 100 190 100 190 110 210 110 210 100 220 100 220 90 210 90"/><polygon fill="#e73635" points="220 50 220 40 200 40 200 50 190 50 190 60 200 60 200 70 220 70 220 60 230 60 230 50 220 50"/><polygon fill="#e73635" points="270 50 270 40 250 40 250 50 240 50 240 60 250 60 250 70 270 70 270 60 280 60 280 50 270 50"/><polygon fill="#e73635" points="320 50 320 40 300 40 300 50 290 50 290 60 300 60 300 70 320 70 320 60 330 60 330 50 320 50"/><polygon fill="#4b4b4b" points="630 170 630 180 620 180 620 190 620 200 610 200 610 210 610 220 600 220 600 230 600 240 590 240 590 250 600 250 610 250 610 240 610 230 620 230 620 220 620 210 630 210 630 200 630 190 640 190 640 180 640 170 630 170"/><polygon fill="#4b4b4b" points="40 170 40 180 50 180 50 190 50 200 60 200 60 210 60 220 70 220 70 230 70 240 80 240 80 250 70 250 60 250 60 240 60 230 50 230 50 220 50 210 40 210 40 200 40 190 30 190 30 180 30 170 40 170"/></g></g></svg>