<svg xmlns="http://www.w3.org/2000/svg" viewBox="0 0 560 300"><g id="Ebene_2" data-name="Ebene 2"><g id="Ebene_4" data-name="Ebene 4"><polygon fill="#4b4b4b" points="550 70 10 70 10 80 0 80 0 290 10 290 10 300 550 300 550 290 560 290 560 80 550 80 550 70"/><rect fill="#afafaf" x="60" y="100" width="160" height="160"/><rect fill="#dcdcdc" x="340" y="170" width="90" height="90"/><rect fill="#dc1400" x="340" y="150" width="90" height="10"/><rect fill="#afafaf" x="440" y="150" width="90" height="10"/><polygon fill="#4b4b4b" points="400 200 400 190 390 190 380 190 370 190 370 200 360 200 360 210 360 220 360 230 370 230 370 240 380 240 390 240 400 240 400 230 410 230 410 220 410 210 410 200 400 200"/><rect fill="#dcdcdc" x="440" y="170" width="90" height="90"/><rect fill="#dc1400" x="440" y="150" width="90" height="10"/><polygon fill="#4b4b4b" points="500 200 500 190 490 190 480 190 470 190 470 200 460 200 460 210 460 220 460 230 470 230 470 240 480 240 490 240 500 240 500 230 510 230 510 220 510 210 510 200 500 200"/><polygon fill="#323232" points="200 150 200 140 190 140 190 120 170 120 170 110 160 110 120 110 110 110 110 120 90 120 90 140 80 140 80 150 70 150 70 200 80 200 80 220 90 220 90 240 110 240 110 250 120 250 160 250 170 250 170 240 190 240 190 220 200 220 200 200 210 200 210 150 200 150"/><rect fill="#dcdcdc" x="250" y="200" width="80" height="30"/><rect fill="#7d7d7d" x="250" y="70" width="300" height="60"/><rect fill="#afafaf" x="240" y="70" width="310" height="10"/><rect fill="#323232" x="240" y="130" width="320" height="10"/><rect fill="#323232" x="250" y="290" width="300" height="10"/><rect fill="#afafaf" x="240" y="70" width="10" height="60"/><rect fill="#afafaf" x="30" y="70" width="10" height="230"/><rect fill="#dc1400" x="50" y="90" width="10" height="180"/><rect fill="#dc1400" x="220" y="90" width="10" height="180"/><rect fill="#dc1400" x="135" y="175" width="10" height="180" transform="translate(-125 405) rotate(-90)"/><rect fill="#dc1400" x="210" y="80" width="10" height="30" transform="translate(120 310) rotate(-90)"/><rect fill="#dc1400" x="60" y="80" width="10" height="30" transform="translate(-30 160) rotate(-90)"/><rect fill="#dcdcdc" x="90" y="80" width="100" height="10"/><rect fill="#4b4b4b" x="80" y="90" width="10" height="10"/><rect fill="#4b4b4b" x="190" y="90" width="10" height="10"/><rect fill="#323232" x="60" y="250" width="10" height="10"/><rect fill="#323232" x="70" y="240" width="10" height="10"/><rect fill="#323232" x="80" y="230" width="10" height="10"/><rect fill="#323232" x="60" y="100" width="10" height="10"/><rect fill="#323232" x="70" y="110" width="10" height="10"/><rect fill="#323232" x="80" y="120" width="10" height="10"/><rect fill="#323232" x="210" y="100" width="10" height="10"/><rect fill="#323232" x="200" y="110" width="10" height="10"/><rect fill="#323232" x="190" y="120" width="10" height="10"/><rect fill="#323232" x="210" y="250" width="10" height="10"/><rect fill="#323232" x="200" y="240" width="10" height="10"/><rect fill="#323232" x="190" y="230" width="10" height="10"/><rect fill="#7d7d7d" x="250" y="270" width="310" height="10"/><rect fill="#afafaf" x="240" y="270" width="10" height="30"/><rect fill="#323232" x="550" y="80" width="10" height="210"/><rect fill="#7d7d7d" x="100" y="130" width="80" height="100"/><rect fill="#7d7d7d" x="80" y="160" width="120" height="30"/><rect fill="#7d7d7d" x="90" y="150" width="10" height="10"/><rect fill="#7d7d7d" x="180" y="150" width="10" height="10"/><rect fill="#7d7d7d" x="180" y="190" width="10" height="10"/><rect fill="#7d7d7d" x="90" y="190" width="10" height="10"/><rect fill="#323232" x="70" y="200" width="10" height="10"/><rect fill="#323232" x="200" y="200" width="10" height="10"/><rect fill="#7d7d7d" x="80" y="190" width="10" height="10"/><rect fill="#7d7d7d" x="190" y="190" width="10" height="10"/><rect fill="#7d7d7d" x="90" y="200" width="100" height="10"/><rect fill="#7d7d7d" x="120" y="120" width="40" height="10"/><rect fill="#7d7d7d" x="120" y="230" width="40" height="10"/><rect fill="#323232" x="370" y="180" width="30" height="10"/><rect fill="#323232" x="410" y="200" width="10" height="30"/><rect fill="#323232" x="370" y="240" width="30" height="10"/><rect fill="#323232" x="350" y="200" width="10" height="30"/><rect fill="#323232" x="360" y="190" width="10" height="10"/><rect fill="#323232" x="400" y="190" width="10" height="10"/><rect fill="#323232" x="400" y="230" width="10" height="10"/><rect fill="#323232" x="360" y="230" width="10" height="10"/><rect fill="#323232" x="470" y="180" width="30" height="10"/><rect fill="#323232" x="470" y="240" width="30" height="10"/><rect fill="#323232" x="510" y="200" width="10" height="30"/><rect fill="#323232" x="450" y="200" width="10" height="30"/><rect fill="#323232" x="460" y="190" width="10" height="10"/><rect fill="#323232" x="500" y="190" width="10" height="10"/><rect fill="#323232" x="500" y="230" width="10" height="10"/><rect fill="#323232" x="460" y="230" width="10" height="10"/><rect fill="#4b4b4b" x="550" y="270" width="10" height="10"/><polygon fill="#4b4b4b" points="380 0 380 20 380 40 370 40 370 70 390 70 390 50 400 50 400 20 400 0 380 0"/><rect fill="#323232" x="370" y="60" width="20" height="10"/></g></g></svg>