<?xml version="1.0" encoding="utf-8"?>
<svg version="1.1" id="Ebene_1" x="0px" y="0px" style="enable-background:new 0 0 560 300;" xmlns="http://www.w3.org/2000/svg">
  <polygon fill="#AFAFAF" points="200 250 200 240 190 240 170 240 170 250 160 250 120 250 110 250 110 240 90 240 80 240 80 250 70 250 70 260 210 260 210 250"/>
  <polygon fill="#AFAFAF" points="70 240 80 240 80 230 90 230 90 220 80 220 80 210 70 210 70 200 70 150 80 150 80 140 90 140 90 130 80 130 80 120 70 120 70 110 60 110 60 250 70 250"/>
  <polygon fill="#AFAFAF" points="80 110 80 120 90 120 110 120 110 110 120 110 160 110 170 110 170 120 190 120 200 120 200 110 210 110 210 100 200 100 190 100 90 100 80 100 70 100 70 110"/>
  <polygon fill="#AFAFAF" points="210 120 200 120 200 130 190 130 190 140 200 140 200 150 210 150 210 200 210 210 200 210 200 220 190 220 190 230 200 230 200 240 210 240 210 250 220 250 220 110 210 110"/>
  <path fill="#DCDCDC" d="M 430 170 L 340 170 L 340 260 L 430 260 L 430 170 Z M 420 230 L 410 230 L 410 240 L 400 240 L 400 250 L 370 250 L 370 240 L 360 240 L 360 230 L 350 230 L 350 200 L 360 200 L 360 190 L 370 190 L 370 180 L 400 180 L 400 190 L 410 190 L 410 200 L 420 200 L 420 230 Z"/>
  <path fill="#DCDCDC" d="M 530 170 L 440 170 L 440 260 L 530 260 L 530 170 Z M 520 230 L 510 230 L 510 240 L 500 240 L 500 250 L 470 250 L 470 240 L 460 240 L 460 230 L 450 230 L 450 200 L 460 200 L 460 190 L 470 190 L 470 180 L 500 180 L 500 190 L 510 190 L 510 200 L 520 200 L 520 230 Z"/>
  <polygon fill="#323232" points="190 200 190 210 180 210 180 230 160 230 160 240 120 240 120 230 100 230 100 210 90 210 90 200 80 200 80 210 80 220 90 220 90 230 90 240 110 240 110 250 120 250 160 250 170 250 170 240 190 240 190 230 190 220 200 220 200 210 200 200"/>
  <polygon fill="#323232" points="170 120 170 110 160 110 120 110 110 110 110 120 90 120 90 130 90 140 80 140 80 150 70 150 70 200 80 200 80 190 80 160 90 160 90 150 100 150 100 130 120 130 120 120 160 120 160 130 180 130 180 150 190 150 190 160 200 160 200 190 200 200 210 200 210 150 200 150 200 140 190 140 190 130 190 120"/>
  <rect x="250" y="200" fill="#DCDCDC" width="80" height="30"/>
  <polygon fill="#AFAFAF" points="550 80 550 70 390 70 370 70 250 70 250 80"/>
  <polygon fill="#323232" points="240 130 240 140 550 140 550 130 250 130"/>
  <rect x="250" y="290" fill="#323232" width="300" height="10"/>
  <rect x="240" y="80" fill="#AFAFAF" width="10" height="50"/>
  <rect x="240" y="70" fill="#AFAFAF" width="10" height="10"/>
  <rect x="30" y="70" fill="#AFAFAF" width="10" height="230"/>
  <polygon fill="#DC1400" points="200 90 200 100 210 100 220 100 220 110 220 250 220 260 210 260 70 260 60 260 60 250 60 110 60 100 70 100 80 100 80 90 60 90 50 90 50 100 50 260 50 270 60 270 220 270 230 270 230 260 230 100 230 90 220 90"/>
  <rect x="340" y="150" fill="#DC1400" width="90" height="10"/>
  <rect x="440" y="150" fill="#DC1400" width="90" height="10"/>
  <rect x="90" y="80" fill="#DCDCDC" width="100" height="10"/>
  <rect x="60" y="250" fill="#323232" width="10" height="10"/>
  <rect x="70" y="240" fill="#323232" width="10" height="10"/>
  <rect x="80" y="230" fill="#323232" width="10" height="10"/>
  <rect x="60" y="100" fill="#323232" width="10" height="10"/>
  <rect x="70" y="110" fill="#323232" width="10" height="10"/>
  <rect x="80" y="120" fill="#323232" width="10" height="10"/>
  <rect x="210" y="100" fill="#323232" width="10" height="10"/>
  <rect x="200" y="110" fill="#323232" width="10" height="10"/>
  <rect x="190" y="120" fill="#323232" width="10" height="10"/>
  <rect x="210" y="250" fill="#323232" width="10" height="10"/>
  <rect x="200" y="240" fill="#323232" width="10" height="10"/>
  <rect x="190" y="230" fill="#323232" width="10" height="10"/>
  <polygon fill="#AFAFAF" points="250 280 250 270 240 270 240 300 250 300 250 290"/>
  <rect x="550" y="140" fill="#323232" width="10" height="130"/>
  <rect x="550" y="280" fill="#323232" width="10" height="10"/>
  <rect x="550" y="80" fill="#323232" width="10" height="50"/>
  <rect x="550" y="130" fill="#323232" width="10" height="10"/>
  <rect x="70" y="200" fill="#323232" width="10" height="10"/>
  <rect x="200" y="200" fill="#323232" width="10" height="10"/>
  <rect x="250" y="80" fill="#7D7D7D" width="300" height="50"/>
  <rect x="250" y="270" fill="#7D7D7D" width="300" height="10"/>
  <polygon fill="#7D7D7D" points="190 150 180 150 180 130 160 130 160 120 120 120 120 130 100 130 100 150 90 150 90 160 80 160 80 190 80 200 90 200 90 210 100 210 100 230 120 230 120 240 160 240 160 230 180 230 180 210 190 210 190 200 200 200 200 190 200 160 190 160"/>
  <polygon fill="#323232" points="390 190 400 190 400 180 370 180 370 190 380 190"/>
  <polygon fill="#323232" points="410 210 410 220 410 230 420 230 420 200 410 200"/>
  <polygon fill="#323232" points="380 240 370 240 370 250 400 250 400 240 390 240"/>
  <polygon fill="#323232" points="360 210 360 200 350 200 350 230 360 230 360 220"/>
  <rect x="360" y="190" fill="#323232" width="10" height="10"/>
  <rect x="400" y="190" fill="#323232" width="10" height="10"/>
  <rect x="400" y="230" fill="#323232" width="10" height="10"/>
  <rect x="360" y="230" fill="#323232" width="10" height="10"/>
  <polygon fill="#323232" points="490 190 500 190 500 180 470 180 470 190 480 190"/>
  <polygon fill="#323232" points="480 240 470 240 470 250 500 250 500 240 490 240"/>
  <polygon fill="#323232" points="510 210 510 220 510 230 520 230 520 200 510 200"/>
  <polygon fill="#323232" points="460 210 460 200 450 200 450 230 460 230 460 220"/>
  <rect x="460" y="190" fill="#323232" width="10" height="10"/>
  <rect x="500" y="190" fill="#323232" width="10" height="10"/>
  <rect x="500" y="230" fill="#323232" width="10" height="10"/>
  <rect x="460" y="230" fill="#323232" width="10" height="10"/>
  <rect x="250" y="280" fill="#4B4B4B" width="300" height="10"/>
  <polygon fill="#4B4B4B" points="10 80 0 80 0 290 10 290 10 300 30 300 30 70 10 70"/>
  <path fill="#4B4B4B" d="M 240 140 L 240 130 L 240 80 L 240 70 L 40 70 L 40 300 L 240 300 L 240 270 L 250 270 L 550 270 L 550 140 L 240 140 Z M 90 80 L 190 80 L 190 90 L 90 90 L 90 80 Z M 230 100 L 230 260 L 230 270 L 220 270 L 60 270 L 50 270 L 50 260 L 50 100 L 50 90 L 60 90 L 80 90 L 80 100 L 90 100 L 190 100 L 200 100 L 200 90 L 220 90 L 230 90 L 230 100 Z M 330 230 L 250 230 L 250 200 L 330 200 L 330 230 Z M 430 260 L 340 260 L 340 170 L 430 170 L 430 260 Z M 430 160 L 340 160 L 340 150 L 430 150 L 430 160 Z M 530 260 L 440 260 L 440 170 L 530 170 L 530 260 Z M 530 160 L 440 160 L 440 150 L 530 150 L 530 160 Z"/>
  <polygon fill="#4B4B4B" points="370 240 380 240 390 240 400 240 400 230 410 230 410 220 410 210 410 200 400 200 400 190 390 190 380 190 370 190 370 200 360 200 360 210 360 220 360 230 370 230"/>
  <polygon fill="#4B4B4B" points="470 240 480 240 490 240 500 240 500 230 510 230 510 220 510 210 510 200 500 200 500 190 490 190 480 190 470 190 470 200 460 200 460 210 460 220 460 230 470 230"/>
  <rect x="550" y="270" fill="#4B4B4B" width="10" height="10"/>
  <polygon fill="#4B4B4B" points="390 50 400 50 400 20 400 0 380 0 380 20 380 40 370 40 370 60 390 60"/>
  <rect x="370" y="60" fill="#323232" width="20" height="10"/>
</svg>