<svg xmlns="http://www.w3.org/2000/svg" viewBox="0 0 600 400"><defs><style>.cls-1{fill:#323232;}.cls-2{fill:#4b4b4b;}</style></defs><g id="Ebene_2" data-name="Ebene 2"><g id="Ebene_4" data-name="Ebene 4"><polygon class="cls-1" points="590 190 590 160 570 160 570 140 560 140 560 130 550 130 550 120 530 120 530 110 510 110 510 100 490 100 490 90 470 90 470 80 440 80 440 70 400 70 400 60 340 60 340 50 330 50 330 30 320 30 320 20 310 20 310 0 300 0 290 0 290 20 280 20 280 30 270 30 270 50 260 50 260 60 200 60 200 70 160 70 160 80 130 80 130 90 110 90 110 100 90 100 90 110 70 110 70 120 50 120 50 130 40 130 40 140 30 140 30 160 10 160 10 190 0 190 0 270 10 270 10 310 30 310 30 320 30 340 40 340 40 350 50 350 50 360 60 360 60 370 70 370 70 380 80 380 80 390 100 390 100 400 140 400 140 390 160 390 160 380 170 380 170 360 180 360 180 340 190 340 190 330 200 330 200 320 220 320 220 310 260 310 260 300 290 300 300 300 310 300 340 300 340 310 380 310 380 320 400 320 400 330 410 330 410 340 420 340 420 360 430 360 430 380 440 380 440 390 460 390 460 400 500 400 500 390 520 390 520 380 530 380 530 370 540 370 540 360 550 360 550 350 560 350 560 340 570 340 570 320 570 310 590 310 590 270 600 270 600 190 590 190"/><path class="cls-2" d="M180,190V180H170V170H160V160H110v10H100v10H90v10H80v50H90v10h10v10h10v10h50V260h10V250h10V240h10V190Zm0,40H150v30H120V230H90V200h30V170h30v30h30Z"/><polygon class="cls-2" points="330 210 330 190 260 190 260 220 330 220 340 220 340 210 330 210"/><rect class="cls-2" x="250" y="80" width="90" height="10"/><rect class="cls-2" x="340" y="90" width="40" height="10"/><rect class="cls-2" x="210" y="90" width="40" height="10"/><path class="cls-2" d="M410,150H390V140h20Zm10-20H400v10h20Zm10-10H410v10h20Zm10-10H420v10h20Z"/><path class="cls-2" d="M420,250V240H410V230H390v10H380v10H370v20h10v10h10v10h20V280h10V270h10V250Zm-10,20H390V250h20Z"/><path class="cls-2" d="M480,210V200H470V190H450v10H440v10H430v20h10v10h10v10h20V240h10V230h10V210Zm-10,20H450V210h20Z"/><path class="cls-2" d="M540,170V160H530V150H510v10H500v10H490v20h10v10h10v10h20V200h10V190h10V170Zm-10,20H510V170h20Z"/></g></g></svg>