<?xml version="1.0" encoding="utf-8"?>
<svg version="1.1" id="Ebene_1" x="0px" y="0px" style="enable-background:new 0 0 570 380;" xmlns="http://www.w3.org/2000/svg">
  <path fill="#323232" d="M 510 100 L 510 90 L 510 80 L 510 70 L 510 60 L 510 50 L 510 40 L 500 40 L 500 30 L 490 30 L 490 20 L 490 10 L 490 0 L 470 0 L 470 10 L 470 20 L 470 30 L 480 30 L 480 40 L 490 40 L 490 50 L 490 60 L 490 70 L 490 80 L 490 90 L 490 100 L 0 100 L 0 150 L 0 280 L 0 380 L 570 380 L 570 280 L 570 150 L 570 100 L 510 100 Z M 50 150 L 50 140 L 60 140 L 60 130 L 70 130 L 70 120 L 80 120 L 90 120 L 100 120 L 110 120 L 120 120 L 130 120 L 130 130 L 140 130 L 140 140 L 150 140 L 150 150 L 160 150 L 160 160 L 170 160 L 170 170 L 170 180 L 170 190 L 170 200 L 170 210 L 170 220 L 160 220 L 160 230 L 150 230 L 150 240 L 140 240 L 140 250 L 130 250 L 130 260 L 120 260 L 110 260 L 100 260 L 90 260 L 80 260 L 70 260 L 70 250 L 60 250 L 60 240 L 50 240 L 50 230 L 40 230 L 40 220 L 30 220 L 30 210 L 30 200 L 30 190 L 30 180 L 30 170 L 30 160 L 40 160 L 40 150 L 50 150 Z M 340 292 L 340 308 L 340 320 L 330 320 L 330 330 L 320 330 L 320 340 L 308 340 L 292 340 L 280 340 L 280 330 L 270 330 L 270 320 L 260 320 L 260 308 L 260 292 L 260 280 L 270 280 L 270 270 L 280 270 L 280 260 L 292 260 L 308 260 L 320 260 L 320 270 L 330 270 L 330 280 L 340 280 L 340 292 Z M 480 292 L 480 308 L 480 320 L 470 320 L 470 330 L 460 330 L 460 340 L 448 340 L 432 340 L 420 340 L 420 330 L 410 330 L 410 320 L 400 320 L 400 308 L 400 292 L 400 280 L 410 280 L 410 270 L 420 270 L 420 260 L 432 260 L 448 260 L 460 260 L 460 270 L 470 270 L 470 280 L 480 280 L 480 292 Z M 270 150 L 270 160 L 260 160 L 260 170 L 250 170 L 250 180 L 240 180 L 240 190 L 230 190 L 230 200 L 220 200 L 220 210 L 210 210 L 210 220 L 200 220 L 200 230 L 190 230 L 190 240 L 180 240 L 180 250 L 170 250 L 170 260 L 160 260 L 160 270 L 150 270 L 150 280 L 140 280 L 140 290 L 130 290 L 130 300 L 120 300 L 120 310 L 110 310 L 110 320 L 100 320 L 100 330 L 90 330 L 90 340 L 80 340 L 80 350 L 70 350 L 70 360 L 60 360 L 60 370 L 50 370 L 50 360 L 60 360 L 60 350 L 70 350 L 70 340 L 80 340 L 80 330 L 90 330 L 90 320 L 100 320 L 100 310 L 110 310 L 110 300 L 120 300 L 120 290 L 130 290 L 130 280 L 140 280 L 140 270 L 150 270 L 150 260 L 160 260 L 160 250 L 170 250 L 170 240 L 180 240 L 180 230 L 190 230 L 190 220 L 200 220 L 200 210 L 210 210 L 210 200 L 220 200 L 220 190 L 230 190 L 230 180 L 240 180 L 240 170 L 250 170 L 250 160 L 260 160 L 260 150 L 270 150 L 270 140 L 280 140 L 280 130 L 290 130 L 290 120 L 300 120 L 300 110 L 310 110 L 310 120 L 300 120 L 300 130 L 290 130 L 290 140 L 280 140 L 280 150 L 270 150 Z"/>
  <polygon fill="#DC1400" points="330 270 320 270 320 260 308 260 292 260 280 260 280 270 270 270 270 280 260 280 260 292 260 308 260 320 270 320 270 330 280 330 280 340 292 340 308 340 320 340 320 330 330 330 330 320 340 320 340 308 340 292 340 280 330 280"/>
  <polygon fill="#DC1400" points="470 280 470 270 460 270 460 260 448 260 432 260 420 260 420 270 410 270 410 280 400 280 400 292 400 308 400 320 410 320 410 330 420 330 420 340 432 340 448 340 460 340 460 330 470 330 470 320 480 320 480 308 480 292 480 280"/>
  <polygon fill="#8E95AD" points="80 140 120 140 120 150 150 150 150 140 140 140 140 130 130 130 130 120 120 120 110 120 100 120 90 120 80 120 70 120 70 130 60 130 60 140 50 140 50 150 80 150"/>
  <polygon fill="#8E95AD" points="30 160 30 170 30 180 30 190 30 200 30 210 30 220 40 220 40 230 50 230 50 240 60 240 60 250 70 250 70 260 80 260 90 260 100 260 110 260 120 260 130 260 130 250 140 250 140 240 150 240 150 230 160 230 160 220 170 220 170 210 170 200 170 190 170 180 170 170 170 160 160 160 160 150 150 150 120 150 120 160 130 160 130 170 140 170 150 170 150 210 140 210 130 210 130 220 120 220 120 230 120 240 80 240 80 230 80 220 70 220 70 210 60 210 50 210 50 170 60 170 70 170 70 160 80 160 80 150 50 150 40 150 40 160"/>
  <polygon fill="#70738C" points="108 230 100 230 92 230 90 230 80 230 80 240 120 240 120 230 110 230"/>
  <polygon fill="#70738C" points="60 198 60 190 60 182 60 180 60 170 50 170 50 210 60 210 60 200"/>
  <polygon fill="#70738C" points="140 190 140 200 140 210 150 210 150 170 140 170 140 180"/>
  <polygon fill="#70738C" points="80 140 80 150 90 150 92 150 100 150 108 150 110 150 120 150 120 140"/>
  <rect x="50" y="360" fill="#4B4B4B" width="10" height="10"/>
  <rect x="60" y="350" fill="#4B4B4B" width="10" height="10"/>
  <rect x="70" y="340" fill="#4B4B4B" width="10" height="10"/>
  <rect x="80" y="330" fill="#4B4B4B" width="10" height="10"/>
  <rect x="90" y="320" fill="#4B4B4B" width="10" height="10"/>
  <rect x="100" y="310" fill="#4B4B4B" width="10" height="10"/>
  <rect x="110" y="300" fill="#4B4B4B" width="10" height="10"/>
  <rect x="120" y="290" fill="#4B4B4B" width="10" height="10"/>
  <rect x="130" y="280" fill="#4B4B4B" width="10" height="10"/>
  <rect x="140" y="270" fill="#4B4B4B" width="10" height="10"/>
  <rect x="150" y="260" fill="#4B4B4B" width="10" height="10"/>
  <rect x="160" y="250" fill="#4B4B4B" width="10" height="10"/>
  <rect x="170" y="240" fill="#4B4B4B" width="10" height="10"/>
  <rect x="180" y="230" fill="#4B4B4B" width="10" height="10"/>
  <rect x="190" y="220" fill="#4B4B4B" width="10" height="10"/>
  <rect x="200" y="210" fill="#4B4B4B" width="10" height="10"/>
  <rect x="210" y="200" fill="#4B4B4B" width="10" height="10"/>
  <rect x="220" y="190" fill="#4B4B4B" width="10" height="10"/>
  <rect x="230" y="180" fill="#4B4B4B" width="10" height="10"/>
  <rect x="240" y="170" fill="#4B4B4B" width="10" height="10"/>
  <rect x="250" y="160" fill="#4B4B4B" width="10" height="10"/>
  <rect x="260" y="150" fill="#4B4B4B" width="10" height="10"/>
  <rect x="270" y="140" fill="#4B4B4B" width="10" height="10"/>
  <rect x="280" y="130" fill="#4B4B4B" width="10" height="10"/>
  <rect x="290" y="120" fill="#4B4B4B" width="10" height="10"/>
  <rect x="300" y="110" fill="#4B4B4B" width="10" height="10"/>
  <rect x="120" y="160" fill="#9EA6B7" width="10" height="10"/>
  <rect x="70" y="210" fill="#9EA6B7" width="10" height="10"/>
  <rect x="70" y="160" fill="#9EA6B7" width="10" height="10"/>
  <rect x="120" y="210" fill="#9EA6B7" width="10" height="10"/>
  <polygon fill="#9EA6B7" points="108 150 100 150 92 150 90 150 80 150 80 160 80 170 70 170 60 170 60 180 60 182 60 190 60 198 60 200 60 210 70 210 80 210 80 220 80 230 90 230 92 230 100 230 108 230 110 230 120 230 120 220 120 210 130 210 140 210 140 200 140 190 140 180 140 170 130 170 120 170 120 160 120 150 110 150"/>
</svg>