<?xml version="1.0" encoding="utf-8"?>
<svg version="1.1" id="Ebene_1" x="0px" y="0px" style="enable-background:new 0 0 660 370;" xmlns="http://www.w3.org/2000/svg">
  <rect x="220" y="230" fill="#2D2D2D"/>
  <path fill="#2D2D2D" d="M 210 170 L 210 170 L 210 150 L 200 150 L 200 140 L 180 140 L 180 130 L 160 130 L 150 130 L 130 130 L 130 140 L 110 140 L 110 150 L 100 150 L 100 170 L 100 170 L 90 170 L 90 230 L 100 230 L 100 230 L 100 250 L 110 250 L 110 260 L 120 260 L 130 260 L 130 270 L 150 270 L 160 270 L 180 270 L 180 260 L 190 260 L 200 260 L 200 250 L 210 250 L 210 230 L 210 230 L 220 230 L 220 170 L 210 170 Z M 200 190 L 200 200 L 200 210 L 200 220 L 190 220 L 190 230 L 180 230 L 180 240 L 170 240 L 170 250 L 158 250 L 152 250 L 140 250 L 140 240 L 130 240 L 130 230 L 120 230 L 120 220 L 110 220 L 110 210 L 110 200 L 110 190 L 110 180 L 120 180 L 120 170 L 130 170 L 130 160 L 140 160 L 140 150 L 152 150 L 158 150 L 170 150 L 170 160 L 180 160 L 180 170 L 190 170 L 190 180 L 200 180 L 200 190 Z"/>
  <rect x="200" y="290" fill="#4B4B4B" width="10" height="10"/>
  <rect x="220" y="280" fill="#4B4B4B" width="10" height="10"/>
  <rect x="230" y="270" fill="#4B4B4B" width="10" height="10"/>
  <rect x="240" y="260" fill="#4B4B4B" width="10" height="10"/>
  <rect x="250" y="250" fill="#4B4B4B" width="10" height="10"/>
  <rect x="250" y="240" fill="#4B4B4B" width="10" height="10"/>
  <rect x="260" y="180" fill="#4B4B4B" width="10" height="60"/>
  <rect x="210" y="290" fill="#4B4B4B" width="10" height="10"/>
  <rect x="250" y="150" fill="#4B4B4B" width="10" height="20"/>
  <rect x="260" y="170" fill="#4B4B4B" width="10" height="10"/>
  <rect x="240" y="130" fill="#4B4B4B" width="10" height="20"/>
  <rect x="230" y="120" fill="#4B4B4B" width="10" height="10"/>
  <rect x="220" y="110" fill="#4B4B4B" width="10" height="10"/>
  <rect x="210" y="100" fill="#4B4B4B" width="10" height="10"/>
  <polygon fill="#4B4B4B" points="190 100 200 100 210 100 210 90 200 90 190 90 180 90 180 100"/>
  <polygon fill="#4B4B4B" points="190 300 180 300 180 310 190 310 200 310 210 310 210 300 200 300"/>
  <rect x="100" y="290" fill="#4B4B4B" width="10" height="10"/>
  <rect x="80" y="280" fill="#4B4B4B" width="10" height="10"/>
  <rect x="70" y="270" fill="#4B4B4B" width="10" height="10"/>
  <rect x="60" y="260" fill="#4B4B4B" width="10" height="10"/>
  <rect x="50" y="250" fill="#4B4B4B" width="10" height="10"/>
  <rect x="50" y="240" fill="#4B4B4B" width="10" height="10"/>
  <rect x="40" y="180" fill="#4B4B4B" width="10" height="60"/>
  <rect x="90" y="290" fill="#4B4B4B" width="10" height="10"/>
  <rect x="50" y="150" fill="#4B4B4B" width="10" height="20"/>
  <rect x="40" y="170" fill="#4B4B4B" width="10" height="10"/>
  <rect x="60" y="130" fill="#4B4B4B" width="10" height="20"/>
  <rect x="70" y="120" fill="#4B4B4B" width="10" height="10"/>
  <rect x="80" y="110" fill="#4B4B4B" width="10" height="10"/>
  <rect x="90" y="100" fill="#4B4B4B" width="10" height="10"/>
  <polygon fill="#4B4B4B" points="120 100 130 100 130 90 120 90 110 90 100 90 100 100 110 100"/>
  <rect x="130" y="80" fill="#4B4B4B" width="50" height="10"/>
  <polygon fill="#4B4B4B" points="120 300 110 300 100 300 100 310 110 310 120 310 130 310 130 300"/>
  <rect x="130" y="310" fill="#4B4B4B" width="50" height="10"/>
  <rect x="320" y="210" fill="#A8A8A9" width="10" height="10"/>
  <rect x="330" y="200" fill="#A8A8A9" width="10" height="10"/>
  <rect x="340" y="190" fill="#A8A8A9" width="10" height="10"/>
  <rect x="350" y="180" fill="#A8A8A9" width="10" height="10"/>
  <rect x="320" y="280" fill="#A8A8A9" width="10" height="10"/>
  <rect x="330" y="270" fill="#A8A8A9" width="10" height="10"/>
  <rect x="340" y="260" fill="#A8A8A9" width="10" height="10"/>
  <rect x="350" y="250" fill="#A8A8A9" width="10" height="10"/>
  <polygon fill="#009600" points="450 190 460 190 460 180 470 180 470 160 460 160 460 150 450 150 450 140 430 140 430 150 420 150 420 160 410 160 410 180 420 180 420 190 430 190 430 200 450 200"/>
  <polygon fill="#FF1400" points="500 220 490 220 490 210 470 210 470 220 460 220 460 230 450 230 450 250 460 250 460 260 470 260 470 270 490 270 490 260 500 260 500 250 510 250 510 230 500 230"/>
  <polygon fill="#FFDC00" points="570 180 560 180 560 170 540 170 540 180 530 180 530 190 520 190 520 210 530 210 530 220 540 220 540 230 560 230 560 220 570 220 570 210 580 210 580 190 570 190"/>
  <polygon fill="#0064FF" points="520 150 530 150 530 140 540 140 540 120 530 120 530 110 520 110 520 100 500 100 500 110 490 110 490 120 480 120 480 140 490 140 490 150 500 150 500 160 520 160"/>
  <polygon fill="#4B4B4B" points="340 50 350 50 350 20 350 0 330 0 330 20 330 40 320 40 320 60 340 60"/>
  <path fill="#323232" d="M 260 170 L 250 170 L 250 150 L 240 150 L 240 130 L 230 130 L 230 120 L 220 120 L 220 110 L 210 110 L 210 100 L 200 100 L 190 100 L 180 100 L 180 90 L 130 90 L 130 100 L 120 100 L 110 100 L 100 100 L 100 110 L 90 110 L 90 120 L 80 120 L 80 130 L 70 130 L 70 150 L 60 150 L 60 170 L 50 170 L 50 180 L 50 240 L 60 240 L 60 250 L 60 260 L 70 260 L 70 270 L 80 270 L 80 280 L 90 280 L 90 290 L 100 290 L 110 290 L 110 300 L 120 300 L 130 300 L 130 310 L 180 310 L 180 300 L 190 300 L 200 300 L 200 290 L 210 290 L 220 290 L 220 280 L 230 280 L 230 270 L 240 270 L 240 260 L 250 260 L 250 250 L 250 240 L 260 240 L 260 180 L 260 170 Z M 220 230 L 220 230 L 220 230 L 210 230 L 210 230 L 210 250 L 200 250 L 200 260 L 190 260 L 180 260 L 180 270 L 160 270 L 150 270 L 130 270 L 130 260 L 120 260 L 110 260 L 110 250 L 100 250 L 100 230 L 100 230 L 90 230 L 90 230 L 90 230 L 90 170 L 100 170 L 100 170 L 100 150 L 110 150 L 110 140 L 130 140 L 130 130 L 150 130 L 160 130 L 180 130 L 180 140 L 200 140 L 200 150 L 210 150 L 210 170 L 210 170 L 220 170 L 220 230 L 220 230 L 220 230 Z"/>
  <path fill="#323232" d="M 650 220 L 650 190 L 640 190 L 640 160 L 630 160 L 630 150 L 630 130 L 620 130 L 620 110 L 610 110 L 610 100 L 600 100 L 600 90 L 590 90 L 590 80 L 580 80 L 580 70 L 560 70 L 560 60 L 540 60 L 520 60 L 520 50 L 480 50 L 480 60 L 450 60 L 450 70 L 340 70 L 340 60 L 320 60 L 320 70 L 210 70 L 210 60 L 180 60 L 180 50 L 140 50 L 140 60 L 120 60 L 100 60 L 100 70 L 80 70 L 80 80 L 70 80 L 70 90 L 60 90 L 60 100 L 50 100 L 50 110 L 40 110 L 40 130 L 30 130 L 30 150 L 30 160 L 20 160 L 20 190 L 10 190 L 10 220 L 0 220 L 0 260 L 10 260 L 10 290 L 20 290 L 20 310 L 30 310 L 30 330 L 40 330 L 40 340 L 60 340 L 60 350 L 70 350 L 70 360 L 90 360 L 90 370 L 120 370 L 140 370 L 170 370 L 170 360 L 190 360 L 210 360 L 220 360 L 220 350 L 330 350 L 440 350 L 440 360 L 450 360 L 470 360 L 490 360 L 490 370 L 520 370 L 540 370 L 570 370 L 570 360 L 590 360 L 590 350 L 600 350 L 600 340 L 620 340 L 620 330 L 630 330 L 630 310 L 640 310 L 640 290 L 650 290 L 650 260 L 660 260 L 660 220 L 650 220 Z M 270 180 L 270 240 L 260 240 L 260 250 L 260 260 L 250 260 L 250 270 L 240 270 L 240 280 L 230 280 L 230 290 L 220 290 L 220 300 L 210 300 L 210 310 L 200 310 L 190 310 L 180 310 L 180 320 L 130 320 L 130 310 L 120 310 L 110 310 L 100 310 L 100 300 L 90 300 L 90 290 L 80 290 L 80 280 L 70 280 L 70 270 L 60 270 L 60 260 L 50 260 L 50 250 L 50 240 L 40 240 L 40 180 L 40 170 L 50 170 L 50 150 L 60 150 L 60 130 L 70 130 L 70 120 L 80 120 L 80 110 L 90 110 L 90 100 L 100 100 L 100 90 L 110 90 L 120 90 L 130 90 L 130 80 L 180 80 L 180 90 L 190 90 L 200 90 L 210 90 L 210 100 L 220 100 L 220 110 L 230 110 L 230 120 L 240 120 L 240 130 L 250 130 L 250 150 L 260 150 L 260 170 L 270 170 L 270 180 Z M 360 260 L 350 260 L 350 270 L 340 270 L 340 280 L 330 280 L 330 290 L 320 290 L 320 280 L 330 280 L 330 270 L 340 270 L 340 260 L 350 260 L 350 250 L 360 250 L 360 260 Z M 360 190 L 350 190 L 350 200 L 340 200 L 340 210 L 330 210 L 330 220 L 320 220 L 320 210 L 330 210 L 330 200 L 340 200 L 340 190 L 350 190 L 350 180 L 360 180 L 360 190 Z M 430 200 L 430 190 L 420 190 L 420 180 L 410 180 L 410 160 L 420 160 L 420 150 L 430 150 L 430 140 L 450 140 L 450 150 L 460 150 L 460 160 L 470 160 L 470 180 L 460 180 L 460 190 L 450 190 L 450 200 L 430 200 Z M 510 250 L 500 250 L 500 260 L 490 260 L 490 270 L 470 270 L 470 260 L 460 260 L 460 250 L 450 250 L 450 230 L 460 230 L 460 220 L 470 220 L 470 210 L 490 210 L 490 220 L 500 220 L 500 230 L 510 230 L 510 250 Z M 500 160 L 500 150 L 490 150 L 490 140 L 480 140 L 480 120 L 490 120 L 490 110 L 500 110 L 500 100 L 520 100 L 520 110 L 530 110 L 530 120 L 540 120 L 540 140 L 530 140 L 530 150 L 520 150 L 520 160 L 500 160 Z M 580 210 L 570 210 L 570 220 L 560 220 L 560 230 L 540 230 L 540 220 L 530 220 L 530 210 L 520 210 L 520 190 L 530 190 L 530 180 L 540 180 L 540 170 L 560 170 L 560 180 L 570 180 L 570 190 L 580 190 L 580 210 Z"/>
  <polygon fill="#4B4B4B" points="190 170 180 170 180 160 170 160 170 150 158 150 152 150 140 150 140 160 130 160 130 170 120 170 120 180 110 180 110 190 110 200 110 210 110 220 120 220 120 230 130 230 130 240 140 240 140 250 152 250 158 250 170 250 170 240 180 240 180 230 190 230 190 220 200 220 200 210 200 200 200 190 200 180 190 180"/>
</svg>