<svg xmlns="http://www.w3.org/2000/svg" viewBox="0 0 660 410"><defs><style>.cls-1{fill:#afafaf;}.cls-2{fill:#4b4b4b;}.cls-3{fill:#646464;}.cls-4{fill:#7d7d7d;}.cls-5{fill:#32bbad;}.cls-6{fill:#d7b3cf;}.cls-7{fill:#e2728a;}</style></defs><g id="Ebene_2" data-name="Ebene 2"><g id="Ebene_2-2" data-name="Ebene 2"><polygon class="cls-1" points="450 70 450 50 460 50 460 30 470 30 470 20 480 20 480 10 560 10 560 20 570 20 570 30 570 50 580 50 580 60 580 70 590 70 590 80 600 80 600 100 610 100 610 120 620 120 620 150 630 150 630 170 630 210 640 210 640 220 640 250 640 270 650 270 650 280 650 310 660 310 660 320 660 350 650 350 650 370 640 370 640 380 630 380 630 390 620 390 620 400 610 400 610 410 560 410 560 400 540 400 540 390 530 390 530 380 520 380 520 360 510 360 510 340 500 340 500 330 490 330 490 320 480 320 480 300 470 300 470 280 460 280 460 270 450 270 450 260 440 260 440 250 330 250 330 80 330 70 450 70"/><rect class="cls-2" x="110" width="60" height="10"/><polygon class="cls-1" points="210 70 210 50 200 50 200 30 190 30 190 20 180 20 180 10 100 10 100 20 90 20 90 30 90 50 80 50 80 60 80 70 70 70 70 80 60 80 60 100 50 100 50 120 40 120 40 150 30 150 30 170 30 210 20 210 20 220 20 250 20 270 10 270 10 280 10 310 0 310 0 320 0 350 10 350 10 370 20 370 20 380 30 380 30 390 40 390 40 400 50 400 50 410 100 410 100 400 120 400 120 390 130 390 130 380 140 380 140 360 150 360 150 340 160 340 160 330 170 330 170 320 180 320 180 300 190 300 190 280 200 280 200 270 210 270 210 260 220 260 220 250 330 250 330 80 330 70 210 70"/><polygon class="cls-1" points="220 130 170 130 170 80 140 80 110 80 110 130 60 130 60 190 110 190 110 240 140 240 170 240 170 190 220 190 220 130"/><polygon class="cls-1" points="600 130 550 130 550 80 520 80 490 80 490 130 440 130 440 190 490 190 490 240 520 240 550 240 550 190 600 190 600 130"/><rect class="cls-2" x="110" width="60" height="10"/><rect class="cls-2" x="490" width="60" height="10" transform="translate(1040 10) rotate(-180)"/><rect class="cls-2" x="110" width="60" height="10"/><polygon class="cls-2" points="110 150 110 140 80 140 80 180 110 180 110 170 120 170 120 150 110 150"/><polygon class="cls-2" points="170 140 170 150 160 150 160 170 170 170 170 180 200 180 200 140 170 140"/><polygon class="cls-2" points="140 100 120 100 120 130 130 130 130 140 140 140 150 140 150 130 160 130 160 100 140 100"/><polygon class="cls-2" points="150 190 150 180 140 180 130 180 130 190 120 190 120 220 140 220 160 220 160 190 150 190"/><path class="cls-3" d="M240,120V100H230V90H220V80H210V70H190V60H170V50H110V60H90V70H70V80H60v20H50v20H40v30H30v20H40v30H50v20H60v20H70v10H90v10h20v10h60V260h20V250h20V240h10V230h10V220h10V200h10V120Zm-20,70H170v50H110V190H60V130h50V80h60v50h50Z"/><path class="cls-3" d="M410,120v80h10v20h10v10h10v10h10v10h20v10h20v10h60V260h20V250h20V240h10V220h10V200h10V170h10V150H620V120H610V100H600V80H590V70H570V60H550V50H490V60H470V70H450V80H440V90H430v10H420v20Zm30,10h50V80h60v50h50v60H550v50H490V190H440Z"/><rect class="cls-4" x="270" y="190" width="40" height="20"/><rect class="cls-4" x="350" y="190" width="20" height="20"/><rect class="cls-4" x="260" y="220" width="60" height="10"/><rect class="cls-4" x="350" y="220" width="40" height="10"/><rect class="cls-4" x="270" y="100" width="20" height="20"/><rect class="cls-4" x="300" y="100" width="20" height="20"/><rect class="cls-4" x="330" y="100" width="10" height="20"/><rect class="cls-4" x="340" y="100" width="10" height="10"/><rect class="cls-4" x="350" y="100" width="10" height="20"/><rect class="cls-4" x="360" y="100" width="30" height="10"/><rect class="cls-4" x="370" y="110" width="10" height="10"/><polygon class="cls-2" points="540 200 540 190 530 190 530 180 510 180 510 190 500 190 500 200 490 200 490 220 500 220 500 230 510 230 510 240 530 240 530 230 540 230 540 220 550 220 550 200 540 200"/><polygon class="cls-2" points="490 150 490 140 480 140 480 130 460 130 460 140 450 140 450 150 440 150 440 170 450 170 450 180 460 180 460 190 480 190 480 180 490 180 490 170 500 170 500 150 490 150"/><polygon class="cls-2" points="590 150 590 140 580 140 580 130 560 130 560 140 550 140 550 150 540 150 540 170 550 170 550 180 560 180 560 190 580 190 580 180 590 180 590 170 600 170 600 150 590 150"/><polygon class="cls-2" points="540 100 540 90 530 90 530 80 510 80 510 90 500 90 500 100 490 100 490 120 500 120 500 130 510 130 510 140 530 140 530 130 540 130 540 120 550 120 550 100 540 100"/><rect class="cls-3" x="510" y="20" width="20" height="10"/><rect class="cls-3" x="130" y="20" width="20" height="10"/><rect class="cls-4" x="320" y="60" width="20" height="10"/><rect class="cls-4" x="310" y="50" width="20" height="10"/><rect class="cls-4" x="310" y="40" width="20" height="10"/><rect class="cls-4" x="300" y="30" width="20" height="10"/><rect class="cls-4" x="290" y="20" width="30" height="10"/><rect class="cls-4" x="260" y="10" width="50" height="10"/><rect class="cls-5" x="500" y="110" width="40" height="10"/><rect class="cls-5" x="510" y="100" width="20" height="10"/><rect class="cls-6" x="450" y="140" width="10" height="40"/><rect class="cls-6" x="480" y="140" width="10" height="40"/><rect class="cls-6" x="460" y="140" width="20" height="10"/><rect class="cls-6" x="460" y="170" width="20" height="10"/><rect class="cls-3" x="500" y="220" width="10" height="10"/><rect class="cls-3" x="510" y="210" width="10" height="10"/><rect class="cls-3" x="520" y="200" width="10" height="10"/><rect class="cls-3" x="530" y="190" width="10" height="10"/><rect class="cls-3" x="500" y="190" width="10" height="10"/><rect class="cls-3" x="510" y="200" width="10" height="10"/><rect class="cls-3" x="520" y="210" width="10" height="10"/><rect class="cls-3" x="530" y="220" width="10" height="10"/><rect class="cls-7" x="550" y="150" width="10" height="20"/><rect class="cls-7" x="560" y="140" width="20" height="10"/><rect class="cls-7" x="580" y="150" width="10" height="20"/><rect class="cls-7" x="560" y="170" width="20" height="10"/></g></g></svg>