<?xml version="1.0" encoding="utf-8"?>
<svg version="1.1" id="Ebene_1" x="0px" y="0px" style="enable-background:new 0 0 660 410;" xmlns="http://www.w3.org/2000/svg">
  <path fill="#AFAFAF" d="M 470 60 L 490 60 L 490 50 L 550 50 L 550 60 L 570 60 L 570 70 L 580 70 L 580 60 L 580 50 L 570 50 L 570 30 L 570 20 L 560 20 L 560 10 L 550 10 L 490 10 L 480 10 L 480 20 L 470 20 L 470 30 L 460 30 L 460 50 L 450 50 L 450 70 L 470 70 L 470 60 Z M 510 20 L 530 20 L 530 30 L 510 30 L 510 20 Z"/>
  <path fill="#AFAFAF" d="M 650 310 L 650 280 L 650 270 L 640 270 L 640 250 L 640 220 L 640 210 L 630 210 L 630 170 L 620 170 L 620 200 L 610 200 L 610 220 L 600 220 L 600 240 L 590 240 L 590 250 L 570 250 L 570 260 L 550 260 L 550 270 L 490 270 L 490 260 L 470 260 L 470 250 L 450 250 L 450 240 L 440 240 L 440 230 L 430 230 L 430 220 L 420 220 L 420 200 L 410 200 L 410 120 L 420 120 L 420 100 L 430 100 L 430 90 L 440 90 L 440 80 L 450 80 L 450 70 L 340 70 L 330 70 L 320 70 L 210 70 L 210 80 L 220 80 L 220 90 L 230 90 L 230 100 L 240 100 L 240 120 L 250 120 L 250 200 L 240 200 L 240 220 L 230 220 L 230 230 L 220 230 L 220 240 L 210 240 L 210 250 L 190 250 L 190 260 L 170 260 L 170 270 L 110 270 L 110 260 L 90 260 L 90 250 L 70 250 L 70 240 L 60 240 L 60 220 L 50 220 L 50 200 L 40 200 L 40 170 L 30 170 L 30 210 L 20 210 L 20 220 L 20 250 L 20 270 L 10 270 L 10 280 L 10 310 L 0 310 L 0 320 L 0 350 L 10 350 L 10 370 L 20 370 L 20 380 L 30 380 L 30 390 L 40 390 L 40 400 L 50 400 L 50 410 L 100 410 L 100 400 L 120 400 L 120 390 L 130 390 L 130 380 L 140 380 L 140 360 L 150 360 L 150 340 L 160 340 L 160 330 L 170 330 L 170 320 L 180 320 L 180 300 L 190 300 L 190 280 L 200 280 L 200 270 L 210 270 L 210 260 L 220 260 L 220 250 L 330 250 L 440 250 L 440 260 L 450 260 L 450 270 L 460 270 L 460 280 L 470 280 L 470 300 L 480 300 L 480 320 L 490 320 L 490 330 L 500 330 L 500 340 L 510 340 L 510 360 L 520 360 L 520 380 L 530 380 L 530 390 L 540 390 L 540 400 L 560 400 L 560 410 L 610 410 L 610 400 L 620 400 L 620 390 L 630 390 L 630 380 L 640 380 L 640 370 L 650 370 L 650 350 L 660 350 L 660 320 L 660 310 L 650 310 Z M 270 100 L 290 100 L 290 120 L 270 120 L 270 100 Z M 270 190 L 310 190 L 310 210 L 270 210 L 270 190 Z M 320 230 L 260 230 L 260 220 L 320 220 L 320 230 Z M 320 120 L 300 120 L 300 100 L 320 100 L 320 120 Z M 390 230 L 350 230 L 350 220 L 390 220 L 390 230 Z M 350 210 L 350 190 L 370 190 L 370 210 L 350 210 Z M 390 110 L 380 110 L 380 120 L 370 120 L 370 110 L 360 110 L 360 120 L 350 120 L 350 110 L 340 110 L 340 120 L 330 120 L 330 100 L 340 100 L 350 100 L 360 100 L 390 100 L 390 110 Z"/>
  <path fill="#AFAFAF" d="M 200 50 L 200 30 L 190 30 L 190 20 L 180 20 L 180 10 L 170 10 L 110 10 L 100 10 L 100 20 L 90 20 L 90 30 L 90 50 L 80 50 L 80 60 L 80 70 L 90 70 L 90 60 L 110 60 L 110 50 L 170 50 L 170 60 L 190 60 L 190 70 L 210 70 L 210 50 L 200 50 Z M 150 30 L 130 30 L 130 20 L 150 20 L 150 30 Z"/>
  <path fill="#AFAFAF" d="M 110 240 L 140 240 L 170 240 L 170 190 L 220 190 L 220 130 L 170 130 L 170 80 L 140 80 L 110 80 L 110 130 L 60 130 L 60 190 L 110 190 L 110 240 Z M 160 220 L 140 220 L 120 220 L 120 190 L 130 190 L 130 180 L 140 180 L 150 180 L 150 190 L 160 190 L 160 220 Z M 170 140 L 200 140 L 200 180 L 170 180 L 170 170 L 160 170 L 160 150 L 170 150 L 170 140 Z M 120 100 L 140 100 L 160 100 L 160 130 L 150 130 L 150 140 L 140 140 L 130 140 L 130 130 L 120 130 L 120 100 Z M 80 180 L 80 140 L 110 140 L 110 150 L 120 150 L 120 170 L 110 170 L 110 180 L 80 180 Z"/>
  <polygon fill="#AFAFAF" points="500 90 510 90 510 80 490 80 490 100 500 100"/>
  <polygon fill="#AFAFAF" points="540 230 530 230 530 240 550 240 550 220 540 220"/>
  <polygon fill="#AFAFAF" points="490 220 490 240 510 240 510 230 500 230 500 220"/>
  <polygon fill="#AFAFAF" points="590 180 580 180 580 190 600 190 600 170 590 170"/>
  <polygon fill="#AFAFAF" points="550 150 550 140 560 140 560 130 550 130 550 120 540 120 540 130 530 130 530 140 510 140 510 130 500 130 500 120 490 120 490 130 480 130 480 140 490 140 490 150 500 150 500 170 490 170 490 180 480 180 480 190 490 190 490 200 500 200 500 190 510 190 510 180 530 180 530 190 540 190 540 200 550 200 550 190 560 190 560 180 550 180 550 170 540 170 540 150"/>
  <polygon fill="#AFAFAF" points="550 100 550 80 530 80 530 90 540 90 540 100"/>
  <polygon fill="#AFAFAF" points="460 130 440 130 440 150 450 150 450 140 460 140"/>
  <polygon fill="#AFAFAF" points="600 130 580 130 580 140 590 140 590 150 600 150"/>
  <polygon fill="#AFAFAF" points="440 170 440 190 460 190 460 180 450 180 450 170"/>
  <rect x="490" fill="#4B4B4B" width="60" height="10"/>
  <rect x="110" fill="#4B4B4B" width="60" height="10"/>
  <polygon fill="#4B4B4B" points="120 150 110 150 110 140 80 140 80 180 110 180 110 170 120 170"/>
  <polygon fill="#4B4B4B" points="170 150 160 150 160 170 170 170 170 180 200 180 200 140 170 140"/>
  <polygon fill="#4B4B4B" points="140 140 150 140 150 130 160 130 160 100 140 100 120 100 120 130 130 130 130 140"/>
  <polygon fill="#4B4B4B" points="150 180 140 180 130 180 130 190 120 190 120 220 140 220 160 220 160 190 150 190"/>
  <polygon fill="#4B4B4B" points="530 200 530 190 530 180 510 180 510 190 510 200 520 200"/>
  <polygon fill="#4B4B4B" points="510 220 510 230 510 240 520 240 530 240 530 230 530 220 520 220"/>
  <polygon fill="#4B4B4B" points="510 200 500 200 490 200 490 220 500 220 510 220 510 210"/>
  <polygon fill="#4B4B4B" points="530 200 530 210 530 220 540 220 550 220 550 200 540 200"/>
  <rect x="460" y="180" fill="#4B4B4B" width="20" height="10"/>
  <rect x="460" y="150" fill="#4B4B4B" width="20" height="20"/>
  <rect x="460" y="130" fill="#4B4B4B" width="20" height="10"/>
  <rect x="490" y="150" fill="#4B4B4B" width="10" height="20"/>
  <rect x="440" y="150" fill="#4B4B4B" width="10" height="20"/>
  <rect x="560" y="150" fill="#4B4B4B" width="20" height="20"/>
  <rect x="580" y="170" fill="#4B4B4B" width="10" height="10"/>
  <rect x="540" y="150" fill="#4B4B4B" width="10" height="20"/>
  <rect x="590" y="150" fill="#4B4B4B" width="10" height="20"/>
  <rect x="550" y="140" fill="#4B4B4B" width="10" height="10"/>
  <rect x="560" y="180" fill="#4B4B4B" width="20" height="10"/>
  <rect x="550" y="170" fill="#4B4B4B" width="10" height="10"/>
  <rect x="580" y="140" fill="#4B4B4B" width="10" height="10"/>
  <rect x="560" y="130" fill="#4B4B4B" width="20" height="10"/>
  <polygon fill="#4B4B4B" points="500 110 510 110 510 100 530 100 530 110 540 110 540 120 550 120 550 100 540 100 540 90 530 90 530 80 520 80 510 80 510 90 500 90 500 100 490 100 490 120 500 120"/>
  <polygon fill="#4B4B4B" points="500 130 510 130 510 140 530 140 530 130 540 130 540 120 500 120"/>
  <rect x="270" y="190" fill="#7D7D7D" width="40" height="20"/>
  <rect x="350" y="190" fill="#7D7D7D" width="20" height="20"/>
  <rect x="260" y="220" fill="#7D7D7D" width="60" height="10"/>
  <rect x="350" y="220" fill="#7D7D7D" width="40" height="10"/>
  <rect x="270" y="100" fill="#7D7D7D" width="20" height="20"/>
  <rect x="300" y="100" fill="#7D7D7D" width="20" height="20"/>
  <polygon fill="#7D7D7D" points="360 100 350 100 340 100 330 100 330 120 340 120 340 110 350 110 350 120 360 120 360 110 370 110 370 120 380 120 380 110 390 110 390 100"/>
  <polygon fill="#7D7D7D" points="330 70 340 70 340 60 330 60 330 50 330 40 320 40 320 30 320 20 310 20 310 10 260 10 260 20 290 20 290 30 300 30 300 40 310 40 310 50 310 60 320 60 320 70"/>
  <polygon fill="#32BBAD" points="530 110 530 100 510 100 510 110 500 110 500 120 540 120 540 110"/>
  <path fill="#D7B3CF" d="M 480 140 L 460 140 L 450 140 L 450 150 L 450 170 L 450 180 L 460 180 L 480 180 L 490 180 L 490 170 L 490 150 L 490 140 L 480 140 Z M 480 170 L 460 170 L 460 150 L 480 150 L 480 170 Z"/>
  <path fill="#646464" d="M 240 100 L 230 100 L 230 90 L 220 90 L 220 80 L 210 80 L 210 70 L 190 70 L 190 60 L 170 60 L 170 50 L 110 50 L 110 60 L 90 60 L 90 70 L 80 70 L 70 70 L 70 80 L 60 80 L 60 100 L 50 100 L 50 120 L 40 120 L 40 150 L 30 150 L 30 170 L 40 170 L 40 200 L 50 200 L 50 220 L 60 220 L 60 240 L 70 240 L 70 250 L 90 250 L 90 260 L 110 260 L 110 270 L 170 270 L 170 260 L 190 260 L 190 250 L 210 250 L 210 240 L 220 240 L 220 230 L 230 230 L 230 220 L 240 220 L 240 200 L 250 200 L 250 120 L 240 120 L 240 100 Z M 220 190 L 170 190 L 170 240 L 140 240 L 110 240 L 110 190 L 60 190 L 60 130 L 110 130 L 110 80 L 140 80 L 170 80 L 170 130 L 220 130 L 220 190 Z"/>
  <path fill="#646464" d="M 620 150 L 620 120 L 610 120 L 610 100 L 600 100 L 600 80 L 590 80 L 590 70 L 580 70 L 570 70 L 570 60 L 550 60 L 550 50 L 490 50 L 490 60 L 470 60 L 470 70 L 450 70 L 450 80 L 440 80 L 440 90 L 430 90 L 430 100 L 420 100 L 420 120 L 410 120 L 410 200 L 420 200 L 420 220 L 430 220 L 430 230 L 440 230 L 440 240 L 450 240 L 450 250 L 470 250 L 470 260 L 490 260 L 490 270 L 550 270 L 550 260 L 570 260 L 570 250 L 590 250 L 590 240 L 600 240 L 600 220 L 610 220 L 610 200 L 620 200 L 620 170 L 630 170 L 630 150 L 620 150 Z M 600 150 L 600 170 L 600 190 L 580 190 L 560 190 L 550 190 L 550 200 L 550 220 L 550 240 L 530 240 L 520 240 L 510 240 L 490 240 L 490 220 L 490 200 L 490 190 L 480 190 L 460 190 L 440 190 L 440 170 L 440 150 L 440 130 L 460 130 L 480 130 L 490 130 L 490 120 L 490 100 L 490 80 L 510 80 L 520 80 L 530 80 L 550 80 L 550 100 L 550 120 L 550 130 L 560 130 L 580 130 L 600 130 L 600 150 Z"/>
  <rect x="510" y="20" fill="#646464" width="20" height="10"/>
  <rect x="130" y="20" fill="#646464" width="20" height="10"/>
  <rect x="500" y="220" fill="#646464" width="10" height="10"/>
  <rect x="530" y="190" fill="#646464" width="10" height="10"/>
  <rect x="500" y="190" fill="#646464" width="10" height="10"/>
  <polygon fill="#646464" points="510 200 510 210 510 220 520 220 530 220 530 210 530 200 520 200"/>
  <rect x="530" y="220" fill="#646464" width="10" height="10"/>
  <rect x="550" y="150" fill="#E2728A" width="10" height="20"/>
  <rect x="560" y="140" fill="#E2728A" width="20" height="10"/>
  <rect x="580" y="150" fill="#E2728A" width="10" height="20"/>
  <rect x="560" y="170" fill="#E2728A" width="20" height="10"/>
</svg>