<svg xmlns="http://www.w3.org/2000/svg" viewBox="0 0 640 310"><defs><style>.cls-1{fill:#afafaf;}.cls-2{fill:#646464;}.cls-3{fill:#7d7d7d;}.cls-4{fill:#0064ff;}.cls-5{fill:#ffdc00;}.cls-6{fill:#009600;}.cls-7{fill:#ff1400;}</style></defs><g id="Ebene_2" data-name="Ebene 2"><g id="Ebene_4" data-name="Ebene 4"><polygon class="cls-1" points="630 140 630 110 620 110 620 100 610 100 610 90 600 90 600 80 590 80 590 70 580 70 580 60 570 60 570 50 550 50 550 40 330 40 330 20 320 20 310 20 310 40 90 40 90 50 70 50 70 60 60 60 60 70 50 70 50 80 40 80 40 90 30 90 30 100 20 100 20 110 10 110 10 140 0 140 0 210 10 210 10 240 20 240 20 250 30 250 30 260 40 260 40 270 50 270 50 280 60 280 60 290 70 290 70 300 90 300 90 310 180 310 180 300 200 300 200 290 210 290 210 280 320 280 430 280 430 290 440 290 440 300 460 300 460 310 550 310 550 300 570 300 570 290 580 290 580 280 590 280 590 270 600 270 600 260 610 260 610 250 620 250 620 240 630 240 630 210 640 210 640 140 630 140"/><rect class="cls-2" x="490" y="160" width="30" height="30"/><rect class="cls-2" x="470" y="180" width="30" height="30"/><rect class="cls-2" x="450" y="200" width="30" height="30"/><rect class="cls-2" x="430" y="220" width="30" height="30"/><rect class="cls-2" x="510" y="140" width="30" height="30"/><rect class="cls-2" x="530" y="120" width="30" height="30"/><rect class="cls-2" x="550" y="100" width="30" height="30"/><polygon class="cls-3" points="460 120 470 120 470 110 480 110 480 90 490 90 530 90 530 120 550 120 550 90 540 90 540 80 490 80 470 80 470 90 460 90 460 110 440 110 440 130 420 130 420 150 440 150 440 140 450 140 450 130 460 130 460 120"/><polygon class="cls-3" points="570 210 560 210 560 220 550 220 550 230 540 230 540 240 530 240 530 260 520 260 480 260 480 230 460 230 460 260 470 260 470 270 520 270 540 270 540 260 550 260 550 240 570 240 570 220 590 220 590 200 570 200 570 210"/><polygon class="cls-3" points="410 160 410 190 410 200 420 200 420 190 420 160 420 150 410 150 410 160"/><rect class="cls-3" x="560" y="130" width="30" height="20"/><rect class="cls-3" x="420" y="200" width="30" height="20"/><polygon class="cls-3" points="590 150 590 160 590 190 590 200 600 200 600 190 600 160 600 150 590 150"/><rect class="cls-3" x="500" y="190" width="10" height="10"/><rect class="cls-3" x="520" y="170" width="10" height="10"/><rect class="cls-3" x="500" y="150" width="10" height="10"/><rect class="cls-3" x="480" y="170" width="10" height="10"/><rect class="cls-1" x="310" width="20" height="20"/><polygon class="cls-2" points="190 160 160 160 160 150 150 150 150 120 120 120 120 150 110 150 110 160 80 160 80 190 110 190 110 200 120 200 120 230 150 230 150 200 160 200 160 190 190 190 190 160"/><rect class="cls-2" x="90" y="40" width="100" height="10"/><rect class="cls-2" x="450" y="40" width="100" height="10"/><polygon class="cls-2" points="280 170 280 180 260 180 260 190 240 190 240 210 260 210 260 200 280 200 280 190 300 190 300 170 280 170"/><polygon class="cls-2" points="350 170 350 180 330 180 330 190 310 190 310 210 330 210 330 200 350 200 350 190 370 190 370 170 350 170"/><rect class="cls-2" x="210" y="200" width="10" height="10"/><rect class="cls-2" x="200" y="210" width="10" height="20"/><rect class="cls-2" x="190" y="230" width="10" height="10"/><rect class="cls-2" x="170" y="240" width="20" height="10"/><rect class="cls-2" x="160" y="250" width="10" height="10"/><rect class="cls-2" x="220" y="150" width="10" height="50"/><rect class="cls-2" x="210" y="140" width="10" height="10"/><rect class="cls-2" x="200" y="120" width="10" height="20"/><rect class="cls-2" x="190" y="110" width="10" height="10"/><rect class="cls-2" x="170" y="100" width="20" height="10"/><rect class="cls-2" x="160" y="90" width="10" height="10"/><rect class="cls-2" x="50" y="140" width="10" height="10"/><rect class="cls-2" x="60" y="120" width="10" height="20"/><rect class="cls-2" x="70" y="110" width="10" height="10"/><rect class="cls-2" x="80" y="100" width="20" height="10"/><rect class="cls-2" x="100" y="90" width="10" height="10"/><rect class="cls-2" x="40" y="150" width="10" height="50"/><rect class="cls-2" x="50" y="200" width="10" height="10"/><rect class="cls-2" x="60" y="210" width="10" height="20"/><rect class="cls-2" x="70" y="230" width="10" height="10"/><rect class="cls-2" x="80" y="240" width="20" height="10"/><rect class="cls-2" x="100" y="250" width="10" height="10"/><polygon class="cls-2" points="140 90 160 90 160 80 140 80 130 80 110 80 110 90 130 90 140 90"/><polygon class="cls-2" points="130 260 110 260 110 270 130 270 140 270 160 270 160 260 140 260 130 260"/><rect class="cls-2" x="240" y="230" width="40" height="10"/><rect class="cls-2" x="310" y="230" width="40" height="10"/><polygon class="cls-2" points="420 150 420 130 440 130 440 110 460 110 460 70 440 70 440 90 420 90 420 110 400 110 400 150 380 150 380 200 400 200 400 240 420 240 420 260 440 260 440 280 460 280 460 240 440 240 440 220 420 220 420 200 410 200 410 150 420 150"/><polygon class="cls-2" points="590 150 590 130 570 130 570 110 550 110 550 70 570 70 570 90 590 90 590 110 610 110 610 150 630 150 630 200 610 200 610 240 590 240 590 260 570 260 570 280 550 280 550 240 570 240 570 220 590 220 590 200 600 200 600 150 590 150"/><polygon class="cls-2" points="540 260 540 270 470 270 470 260 440 260 440 280 470 280 470 290 540 290 540 280 570 280 570 260 540 260"/><polygon class="cls-2" points="470 90 470 80 540 80 540 90 570 90 570 70 540 70 540 60 470 60 470 70 440 70 440 90 470 90"/><rect class="cls-4" x="490" y="100" width="30" height="30"/><rect class="cls-5" x="490" y="220" width="30" height="30"/><rect class="cls-6" x="430" y="160" width="30" height="30" transform="translate(270 620) rotate(-90)"/><rect class="cls-7" x="550" y="160" width="30" height="30" transform="translate(390 740) rotate(-90)"/><polygon class="cls-2" points="380 60 300 60 300 70 290 70 290 90 280 90 280 70 290 70 290 60 280 60 220 60 220 70 210 70 210 90 220 90 220 100 280 100 290 100 300 100 380 100 380 70 390 70 390 60 380 60"/><rect class="cls-2" x="190" y="70" width="10" height="10"/></g></g></svg>