<?xml version="1.0" encoding="utf-8"?>
<svg version="1.1" id="Ebene_1" x="0px" y="0px" style="enable-background:new 0 0 640 310;" xmlns="http://www.w3.org/2000/svg">
  <polygon fill="#7D7D7D" points="540 80 490 80 470 80 470 90 460 90 460 110 440 110 440 130 420 130 420 150 440 150 440 140 450 140 450 130 460 130 460 120 470 120 470 110 480 110 480 90 490 90 530 90 530 120 550 120 550 110 550 100 550 90 540 90"/>
  <polygon fill="#7D7D7D" points="570 210 560 210 560 220 550 220 550 230 540 230 540 240 530 240 530 260 520 260 480 260 480 230 460 230 460 240 460 250 460 260 470 260 470 270 520 270 540 270 540 260 550 260 550 240 570 240 570 220 590 220 590 200 570 200"/>
  <polygon fill="#7D7D7D" points="420 160 420 150 410 150 410 160 410 190 410 200 420 200 420 190"/>
  <polygon fill="#7D7D7D" points="560 130 560 150 590 150 590 130 580 130 570 130"/>
  <polygon fill="#7D7D7D" points="450 220 450 200 420 200 420 220 430 220 440 220"/>
  <polygon fill="#7D7D7D" points="590 190 590 200 600 200 600 190 600 160 600 150 590 150 590 160"/>
  <rect x="500" y="190" fill="#7D7D7D" width="10" height="10"/>
  <rect x="520" y="170" fill="#7D7D7D" width="10" height="10"/>
  <rect x="500" y="150" fill="#7D7D7D" width="10" height="10"/>
  <rect x="480" y="170" fill="#7D7D7D" width="10" height="10"/>
  <path fill="#AFAFAF" d="M 540 150 L 540 170 L 530 170 L 530 180 L 520 180 L 520 190 L 510 190 L 510 200 L 500 200 L 500 210 L 480 210 L 480 230 L 480 260 L 520 260 L 530 260 L 530 240 L 540 240 L 540 230 L 550 230 L 550 220 L 560 220 L 560 210 L 570 210 L 570 200 L 590 200 L 590 190 L 590 160 L 590 150 L 560 150 L 540 150 Z M 520 250 L 490 250 L 490 220 L 520 220 L 520 250 Z M 580 190 L 550 190 L 550 160 L 580 160 L 580 190 Z"/>
  <rect x="280" y="70" fill="#AFAFAF" width="10" height="20"/>
  <path fill="#AFAFAF" d="M 210 150 L 210 140 L 200 140 L 200 120 L 190 120 L 190 110 L 170 110 L 170 100 L 160 100 L 160 90 L 140 90 L 130 90 L 110 90 L 110 100 L 100 100 L 100 110 L 80 110 L 80 120 L 70 120 L 70 140 L 60 140 L 60 150 L 50 150 L 50 200 L 60 200 L 60 210 L 70 210 L 70 230 L 80 230 L 80 240 L 100 240 L 100 250 L 110 250 L 110 260 L 130 260 L 140 260 L 160 260 L 160 250 L 170 250 L 170 240 L 190 240 L 190 230 L 200 230 L 200 210 L 210 210 L 210 200 L 220 200 L 220 150 L 210 150 Z M 190 190 L 160 190 L 160 200 L 150 200 L 150 230 L 120 230 L 120 200 L 110 200 L 110 190 L 80 190 L 80 160 L 110 160 L 110 150 L 120 150 L 120 120 L 150 120 L 150 150 L 160 150 L 160 160 L 190 160 L 190 190 Z"/>
  <path fill="#AFAFAF" d="M 630 140 L 630 110 L 620 110 L 620 100 L 610 100 L 610 90 L 600 90 L 600 80 L 590 80 L 590 70 L 580 70 L 580 60 L 570 60 L 570 50 L 550 50 L 450 50 L 450 40 L 330 40 L 330 20 L 330 0 L 310 0 L 310 20 L 310 40 L 190 40 L 190 50 L 90 50 L 70 50 L 70 60 L 60 60 L 60 70 L 50 70 L 50 80 L 40 80 L 40 90 L 30 90 L 30 100 L 20 100 L 20 110 L 10 110 L 10 140 L 0 140 L 0 210 L 10 210 L 10 240 L 20 240 L 20 250 L 30 250 L 30 260 L 40 260 L 40 270 L 50 270 L 50 280 L 60 280 L 60 290 L 70 290 L 70 300 L 90 300 L 90 310 L 180 310 L 180 300 L 200 300 L 200 290 L 210 290 L 210 280 L 320 280 L 430 280 L 430 290 L 440 290 L 440 300 L 460 300 L 460 310 L 550 310 L 550 300 L 570 300 L 570 290 L 580 290 L 580 280 L 590 280 L 590 270 L 600 270 L 600 260 L 610 260 L 610 250 L 620 250 L 620 240 L 630 240 L 630 210 L 640 210 L 640 140 L 630 140 Z M 190 70 L 200 70 L 200 80 L 190 80 L 190 70 Z M 230 200 L 220 200 L 220 210 L 210 210 L 210 230 L 200 230 L 200 240 L 190 240 L 190 250 L 170 250 L 170 260 L 160 260 L 160 270 L 140 270 L 130 270 L 110 270 L 110 260 L 100 260 L 100 250 L 80 250 L 80 240 L 70 240 L 70 230 L 60 230 L 60 210 L 50 210 L 50 200 L 40 200 L 40 150 L 50 150 L 50 140 L 60 140 L 60 120 L 70 120 L 70 110 L 80 110 L 80 100 L 100 100 L 100 90 L 110 90 L 110 80 L 130 80 L 140 80 L 160 80 L 160 90 L 170 90 L 170 100 L 190 100 L 190 110 L 200 110 L 200 120 L 210 120 L 210 140 L 220 140 L 220 150 L 230 150 L 230 200 Z M 280 240 L 240 240 L 240 230 L 280 230 L 280 240 Z M 300 190 L 280 190 L 280 200 L 260 200 L 260 210 L 240 210 L 240 190 L 260 190 L 260 180 L 280 180 L 280 170 L 300 170 L 300 190 Z M 290 100 L 280 100 L 220 100 L 220 90 L 210 90 L 210 70 L 220 70 L 220 60 L 280 60 L 290 60 L 290 70 L 300 70 L 300 60 L 380 60 L 390 60 L 390 70 L 380 70 L 380 100 L 300 100 L 290 100 Z M 350 240 L 310 240 L 310 230 L 350 230 L 350 240 Z M 370 190 L 350 190 L 350 200 L 330 200 L 330 210 L 310 210 L 310 190 L 330 190 L 330 180 L 350 180 L 350 170 L 370 170 L 370 190 Z M 630 200 L 610 200 L 610 240 L 590 240 L 590 260 L 570 260 L 570 280 L 550 280 L 540 280 L 540 290 L 470 290 L 470 280 L 460 280 L 440 280 L 440 260 L 420 260 L 420 240 L 400 240 L 400 200 L 380 200 L 380 150 L 400 150 L 400 110 L 420 110 L 420 90 L 440 90 L 440 70 L 460 70 L 470 70 L 470 60 L 540 60 L 540 70 L 550 70 L 570 70 L 570 90 L 590 90 L 590 110 L 610 110 L 610 150 L 630 150 L 630 200 Z"/>
  <path fill="#AFAFAF" d="M 480 170 L 490 170 L 490 160 L 500 160 L 500 150 L 510 150 L 510 140 L 530 140 L 530 120 L 530 90 L 490 90 L 480 90 L 480 110 L 470 110 L 470 120 L 460 120 L 460 130 L 450 130 L 450 140 L 440 140 L 440 150 L 420 150 L 420 160 L 420 190 L 420 200 L 450 200 L 470 200 L 470 180 L 480 180 L 480 170 Z M 490 100 L 520 100 L 520 130 L 490 130 L 490 100 Z M 460 190 L 430 190 L 430 160 L 460 160 L 460 190 Z"/>
  <rect x="490" y="100" class="st2" width="30" height="30"/>
  <rect x="490" y="220" fill="#FFDC00" width="30" height="30"/>
  <rect x="430" y="160" fill="#009600" width="30" height="30"/>
  <rect x="550" y="160" fill="#FF1400" width="30" height="30"/>
  <polygon fill="#646464" points="160 150 150 150 150 120 120 120 120 150 110 150 110 160 80 160 80 190 110 190 110 200 120 200 120 230 150 230 150 200 160 200 160 190 190 190 190 160 160 160"/>
  <rect x="90" y="40" fill="#646464" width="100" height="10"/>
  <rect x="450" y="40" fill="#646464" width="100" height="10"/>
  <polygon fill="#646464" points="280 180 260 180 260 190 240 190 240 210 260 210 260 200 280 200 280 190 300 190 300 170 280 170"/>
  <polygon fill="#646464" points="350 180 330 180 330 190 310 190 310 210 330 210 330 200 350 200 350 190 370 190 370 170 350 170"/>
  <rect x="210" y="200" fill="#646464" width="10" height="10"/>
  <rect x="200" y="210" fill="#646464" width="10" height="20"/>
  <rect x="190" y="230" fill="#646464" width="10" height="10"/>
  <rect x="170" y="240" fill="#646464" width="20" height="10"/>
  <rect x="160" y="250" fill="#646464" width="10" height="10"/>
  <rect x="220" y="150" fill="#646464" width="10" height="50"/>
  <rect x="210" y="140" fill="#646464" width="10" height="10"/>
  <rect x="200" y="120" fill="#646464" width="10" height="20"/>
  <rect x="190" y="110" fill="#646464" width="10" height="10"/>
  <rect x="170" y="100" fill="#646464" width="20" height="10"/>
  <rect x="160" y="90" fill="#646464" width="10" height="10"/>
  <rect x="50" y="140" fill="#646464" width="10" height="10"/>
  <rect x="60" y="120" fill="#646464" width="10" height="20"/>
  <rect x="70" y="110" fill="#646464" width="10" height="10"/>
  <rect x="80" y="100" fill="#646464" width="20" height="10"/>
  <rect x="100" y="90" fill="#646464" width="10" height="10"/>
  <rect x="40" y="150" fill="#646464" width="10" height="50"/>
  <rect x="50" y="200" fill="#646464" width="10" height="10"/>
  <rect x="60" y="210" fill="#646464" width="10" height="20"/>
  <rect x="70" y="230" fill="#646464" width="10" height="10"/>
  <rect x="80" y="240" fill="#646464" width="20" height="10"/>
  <rect x="100" y="250" fill="#646464" width="10" height="10"/>
  <polygon fill="#646464" points="140 90 160 90 160 80 140 80 130 80 110 80 110 90 130 90"/>
  <polygon fill="#646464" points="130 260 110 260 110 270 130 270 140 270 160 270 160 260 140 260"/>
  <rect x="240" y="230" fill="#646464" width="40" height="10"/>
  <rect x="310" y="230" fill="#646464" width="40" height="10"/>
  <path fill="#646464" d="M 610 150 L 610 110 L 590 110 L 590 90 L 570 90 L 570 70 L 550 70 L 540 70 L 540 60 L 470 60 L 470 70 L 460 70 L 440 70 L 440 90 L 420 90 L 420 110 L 400 110 L 400 150 L 380 150 L 380 200 L 400 200 L 400 240 L 420 240 L 420 260 L 440 260 L 440 280 L 460 280 L 470 280 L 470 290 L 540 290 L 540 280 L 550 280 L 570 280 L 570 260 L 590 260 L 590 240 L 610 240 L 610 200 L 630 200 L 630 150 L 610 150 Z M 450 200 L 450 220 L 440 220 L 430 220 L 420 220 L 420 200 L 410 200 L 410 190 L 410 160 L 410 150 L 420 150 L 420 130 L 440 130 L 440 110 L 460 110 L 460 90 L 470 90 L 470 80 L 490 80 L 540 80 L 540 90 L 550 90 L 550 100 L 550 110 L 550 120 L 530 120 L 530 140 L 510 140 L 510 150 L 510 160 L 500 160 L 490 160 L 490 170 L 490 180 L 480 180 L 470 180 L 470 200 L 450 200 Z M 600 160 L 600 190 L 600 200 L 590 200 L 590 220 L 570 220 L 570 240 L 550 240 L 550 260 L 540 260 L 540 270 L 520 270 L 470 270 L 470 260 L 460 260 L 460 250 L 460 240 L 460 230 L 480 230 L 480 210 L 500 210 L 500 200 L 500 190 L 510 190 L 520 190 L 520 180 L 520 170 L 530 170 L 540 170 L 540 150 L 560 150 L 560 130 L 570 130 L 580 130 L 590 130 L 590 150 L 600 150 L 600 160 Z"/>
  <polygon fill="#646464" points="380 70 390 70 390 60 380 60 300 60 300 70 290 70 290 90 280 90 280 70 290 70 290 60 280 60 220 60 220 70 210 70 210 90 220 90 220 100 280 100 290 100 300 100 380 100"/>
  <rect x="190" y="70" fill="#646464" width="10" height="10"/>
</svg>