<?xml version="1.0" encoding="utf-8"?>
<svg xmlns="http://www.w3.org/2000/svg">
  <path d="M 0 5.571 L 0 3.714 L 1.874 3.714 L 1.874 5.571 Z M 7.496 5.571 L 7.496 3.714 L 9.37 3.714 L 9.37 5.571 Z M 0 1.857 L 0 0 L 1.874 0 L 1.874 1.857 Z M 3.748 5.571 L 3.748 3.714 L 1.874 3.714 L 1.874 1.857 L 3.748 1.857 L 3.748 0 L 5.622 0 L 5.622 1.857 L 7.496 1.857 L 7.496 3.714 L 5.622 3.714 L 5.622 5.571 Z M 7.496 1.857 L 7.496 0 L 9.37 0 L 9.37 1.857 Z M 11.42 13 L 11.42 1.857 L 13.293 1.857 L 13.293 5.571 L 18.915 5.571 L 18.915 1.857 L 20.789 1.857 L 20.789 13 L 18.916 13 L 18.916 7.429 L 13.293 7.429 L 13.293 13 Z M 13.293 1.857 L 13.293 0 L 18.915 0 L 18.915 1.857 Z M 26.586 9.286 L 26.586 7.429 L 28.46 7.429 L 28.46 9.286 Z M 26.586 5.571 L 26.586 3.714 L 28.46 3.714 L 28.46 5.571 Z M 45.676 13 L 45.676 0 L 55.046 0 L 55.046 1.857 L 47.55 1.857 L 47.55 5.571 L 53.172 5.571 L 53.172 7.429 L 47.553 7.429 L 47.553 11.143 L 55.049 11.143 L 55.049 13 Z M 60.847 7.429 L 60.847 5.571 L 62.721 5.571 L 62.721 7.429 Z M 57.099 13 L 57.099 0 L 58.969 0 L 58.969 1.857 L 60.843 1.857 L 60.843 5.571 L 58.969 5.571 L 58.969 13 Z M 64.595 13 L 64.595 11.143 L 62.721 11.143 L 62.721 7.429 L 64.595 7.429 L 64.595 0 L 66.465 0 L 66.465 13 Z M 72.262 13 L 72.262 1.857 L 68.514 1.857 L 68.514 0 L 77.889 0 L 77.889 1.857 L 74.141 1.857 L 74.141 13 Z M 79.938 13 L 79.938 0 L 89.308 0 L 89.308 1.857 L 81.812 1.857 L 81.812 5.571 L 87.434 5.571 L 87.434 7.429 L 81.812 7.429 L 81.812 11.143 L 89.308 11.143 L 89.308 13 Z M 98.854 13 L 98.854 7.429 L 100.728 7.429 L 100.728 13 Z M 98.854 5.571 L 98.854 1.857 L 100.728 1.857 L 100.728 5.571 Z M 91.358 13 L 91.358 0 L 98.854 0 L 98.854 1.857 L 93.232 1.857 L 93.232 5.571 L 98.854 5.571 L 98.854 7.429 L 93.232 7.429 L 93.232 13 Z M 114.198 13 L 114.198 9.286 L 116.072 9.286 L 116.072 13 Z M 116.072 9.286 L 116.072 7.429 L 117.946 7.429 L 117.946 9.286 Z M 117.946 7.429 L 117.946 5.571 L 119.82 5.571 L 119.82 7.429 Z M 119.82 5.571 L 119.82 3.714 L 121.694 3.714 L 121.694 5.571 Z M 121.694 3.714 L 121.694 0 L 123.568 0 L 123.568 3.714 Z M 137.037 5.571 L 137.037 3.714 L 138.911 3.714 L 138.911 5.571 Z M 144.533 5.571 L 144.533 3.714 L 146.407 3.714 L 146.407 5.571 Z M 137.037 1.857 L 137.037 0 L 138.911 0 L 138.911 1.857 Z M 140.785 5.571 L 140.785 3.714 L 138.911 3.714 L 138.911 1.857 L 140.785 1.857 L 140.785 0 L 142.659 0 L 142.659 1.857 L 144.533 1.857 L 144.533 3.714 L 142.659 3.714 L 142.659 5.571 Z M 144.533 1.857 L 144.533 0 L 146.407 0 L 146.407 1.857 Z M 155.953 11.143 L 155.953 7.429 L 157.827 7.429 L 157.827 11.143 Z M 155.953 5.571 L 155.953 1.857 L 157.827 1.857 L 157.827 5.571 Z M 148.457 13 L 148.457 0 L 155.953 0 L 155.953 1.857 L 150.331 1.857 L 150.331 5.571 L 155.953 5.571 L 155.953 7.429 L 150.331 7.429 L 150.331 11.143 L 155.953 11.143 L 155.953 13 Z M 163.625 9.286 L 163.625 7.429 L 165.499 7.429 L 165.499 9.286 Z M 163.625 5.571 L 163.625 3.714 L 165.499 3.714 L 165.499 5.571 Z M 190.211 11.143 L 190.211 7.429 L 192.085 7.429 L 192.085 11.143 Z M 190.211 5.571 L 190.211 1.857 L 192.085 1.857 L 192.085 5.571 Z M 182.715 13 L 182.715 0 L 190.211 0 L 190.211 1.857 L 184.589 1.857 L 184.589 5.571 L 190.211 5.571 L 190.211 7.429 L 184.589 7.429 L 184.589 11.143 L 190.211 11.143 L 190.211 13 Z M 194.135 13 L 194.135 1.857 L 196.009 1.857 L 196.009 5.571 L 201.631 5.571 L 201.631 1.857 L 203.505 1.857 L 203.505 13 L 201.631 13 L 201.631 7.429 L 196.009 7.429 L 196.009 13 Z M 196.009 1.857 L 196.009 0 L 201.631 0 L 201.631 1.857 Z M 207.43 13 L 207.43 11.143 L 213.052 11.143 L 213.052 13 Z M 213.052 11.143 L 213.052 9.286 L 214.926 9.286 L 214.926 11.143 Z M 205.556 11.143 L 205.556 1.857 L 207.43 1.857 L 207.43 11.143 Z M 213.052 3.714 L 213.052 1.857 L 214.926 1.857 L 214.926 3.714 Z M 207.43 1.857 L 207.43 0 L 213.052 0 L 213.052 1.857 Z M 224.472 13 L 224.472 11.143 L 226.346 11.143 L 226.346 13 Z M 222.598 11.143 L 222.598 9.286 L 224.472 9.286 L 224.472 11.143 Z M 220.724 9.286 L 220.724 7.429 L 222.598 7.429 L 222.598 9.286 Z M 220.724 5.571 L 220.724 3.714 L 222.598 3.714 L 222.598 5.571 Z M 222.598 3.714 L 222.598 1.857 L 224.472 1.857 L 224.472 3.714 Z M 216.976 13 L 216.976 0 L 218.85 0 L 218.85 5.571 L 220.724 5.571 L 220.724 7.429 L 218.85 7.429 L 218.85 13 Z M 224.472 1.857 L 224.472 0 L 226.346 0 L 226.346 1.857 Z M 239.814 13 L 239.814 9.286 L 241.688 9.286 L 241.688 13 Z M 241.688 9.286 L 241.688 7.429 L 243.562 7.429 L 243.562 9.286 Z M 243.562 7.429 L 243.562 5.571 L 245.437 5.571 L 245.437 7.429 Z M 245.437 5.571 L 245.437 3.714 L 247.311 3.714 L 247.311 5.571 Z M 247.311 3.714 L 247.311 0 L 249.185 0 L 249.185 3.714 Z M 262.654 5.571 L 262.654 3.714 L 264.528 3.714 L 264.528 5.571 Z M 270.15 5.571 L 270.15 3.714 L 272.024 3.714 L 272.024 5.571 Z M 262.654 1.857 L 262.654 0 L 264.528 0 L 264.528 1.857 Z M 266.402 5.571 L 266.402 3.714 L 264.528 3.714 L 264.528 1.857 L 266.402 1.857 L 266.402 0 L 268.276 0 L 268.276 1.857 L 270.15 1.857 L 270.15 3.714 L 268.276 3.714 L 268.276 5.571 Z M 270.15 1.857 L 270.15 0 L 272.024 0 L 272.024 1.857 Z M 277.822 13 L 277.822 5.571 L 279.696 5.571 L 279.696 13 Z M 275.948 5.571 L 275.948 3.714 L 277.822 3.714 L 277.822 5.571 Z M 279.696 5.571 L 279.696 3.714 L 281.57 3.714 L 281.57 5.571 Z M 274.074 3.714 L 274.074 0 L 275.948 0 L 275.948 3.714 Z M 281.57 3.714 L 281.57 0 L 283.444 0 L 283.444 3.714 Z M 289.242 9.286 L 289.242 7.429 L 291.116 7.429 L 291.116 9.286 Z M 289.242 5.571 L 289.242 3.714 L 291.116 3.714 L 291.116 5.571 Z M 308.337 13 L 308.337 1.857 L 310.211 1.857 L 310.211 5.571 L 315.833 5.571 L 315.833 1.857 L 317.707 1.857 L 317.707 13 L 315.833 13 L 315.833 7.429 L 310.211 7.429 L 310.211 13 Z M 310.211 1.857 L 310.211 0 L 315.833 0 L 315.833 1.857 Z M 327.253 11.143 L 327.253 1.857 L 329.126 1.857 L 329.126 11.143 Z M 319.753 13 L 319.753 0 L 327.249 0 L 327.249 1.857 L 321.63 1.857 L 321.63 11.143 L 327.252 11.143 L 327.252 13 Z M 338.669 11.143 L 338.669 1.857 L 340.543 1.857 L 340.543 11.143 Z M 331.173 13 L 331.173 0 L 338.669 0 L 338.669 1.857 L 333.047 1.857 L 333.047 11.143 L 338.669 11.143 L 338.669 13 Z M 357.759 13 L 357.759 1.857 L 354.013 1.857 L 354.013 0 L 363.383 0 L 363.383 1.857 L 359.635 1.857 L 359.635 13 Z M 367.306 13 L 367.306 11.143 L 372.928 11.143 L 372.928 13 Z M 365.432 11.143 L 365.432 1.857 L 367.306 1.857 L 367.306 11.143 Z M 372.928 11.143 L 372.928 1.857 L 374.802 1.857 L 374.802 11.143 Z M 367.306 1.857 L 367.306 0 L 372.928 0 L 372.928 1.857 Z M 388.272 13 L 388.272 0 L 397.642 0 L 397.642 1.857 L 390.146 1.857 L 390.146 5.571 L 395.768 5.571 L 395.768 7.429 L 390.146 7.429 L 390.146 13 Z M 399.689 13 L 399.689 1.857 L 401.563 1.857 L 401.563 5.571 L 407.185 5.571 L 407.185 1.857 L 409.059 1.857 L 409.059 13 L 407.185 13 L 407.185 7.429 L 401.563 7.429 L 401.563 13 Z M 401.563 1.857 L 401.563 0 L 407.185 0 L 407.185 1.857 Z M 414.859 13 L 414.859 11.143 L 416.733 11.143 L 416.733 13 Z M 412.982 11.143 L 412.982 9.286 L 414.856 9.286 L 414.856 11.143 Z M 416.73 11.143 L 416.73 9.286 L 418.604 9.286 L 418.604 11.143 Z M 411.111 9.286 L 411.111 0 L 412.982 0 L 412.982 9.286 Z M 418.607 9.286 L 418.607 0 L 420.478 0 L 420.478 9.286 Z M 424.404 13 L 424.404 11.143 L 430.026 11.143 L 430.026 13 Z M 422.53 11.143 L 422.53 1.857 L 424.404 1.857 L 424.404 11.143 Z M 430.026 11.143 L 430.026 1.857 L 431.9 1.857 L 431.9 11.143 Z M 424.404 1.857 L 424.404 0 L 430.026 0 L 430.026 1.857 Z M 441.447 13 L 441.447 7.429 L 443.321 7.429 L 443.321 13 Z M 441.447 5.571 L 441.447 1.857 L 443.321 1.857 L 443.321 5.571 Z M 433.951 13 L 433.951 0 L 441.447 0 L 441.447 1.857 L 435.825 1.857 L 435.825 5.571 L 441.447 5.571 L 441.447 7.429 L 435.825 7.429 L 435.825 13 Z M 447.244 13 L 447.244 11.143 L 449.118 11.143 L 449.118 1.857 L 447.244 1.857 L 447.244 0 L 452.866 0 L 452.866 1.857 L 450.992 1.857 L 450.992 11.143 L 452.866 11.143 L 452.866 13 Z M 460.537 13 L 460.537 1.857 L 456.789 1.857 L 456.789 0 L 466.159 0 L 466.159 1.857 L 462.411 1.857 L 462.411 13 Z M 468.209 13 L 468.209 0 L 477.579 0 L 477.579 1.857 L 470.083 1.857 L 470.083 5.571 L 475.705 5.571 L 475.705 7.429 L 470.083 7.429 L 470.083 11.143 L 477.579 11.143 L 477.579 13 Z M 479.629 13 L 479.629 11.143 L 487.125 11.143 L 487.125 13 Z M 487.125 11.143 L 487.125 7.429 L 488.999 7.429 L 488.999 11.143 Z M 481.503 7.429 L 481.503 5.571 L 487.125 5.571 L 487.125 7.429 Z M 479.63 5.571 L 479.63 1.857 L 481.504 1.857 L 481.504 5.571 Z M 481.504 1.857 L 481.504 0 L 489 0 L 489 1.857 Z" fill="#707070"/>
</svg>