<?xml version="1.0" encoding="utf-8"?>
<svg xmlns="http://www.w3.org/2000/svg">
  <path d="M 10.6 3.144 C 10.559 3.279 10.534 3.417 10.525 3.558 C 10.468 3.795 10.435 4.037 10.425 4.281 L 10.35 4.798 L 10.25 5.392 C 9.25 13.279 7.358 18.642 4.066 22.818 C 2.861 21.596 1.492 20.56 0 19.744 C 3.392 16.189 5.736 9.151 5.861 2.269 Z M 17.882 2.243 L 17.882 2.321 C 18.03 4.217 18.331 6.096 18.782 7.94 C 19.692 12.206 21.564 16.189 24.245 19.565 C 22.784 20.443 21.454 21.537 20.3 22.814 C 16.984 18.302 14.814 12.347 13.866 5.13 C 13.841 4.873 13.816 4.691 13.816 4.639 L 13.641 3.661 L 13.616 3.403 L 13.516 3.093 Z M 24.441 4.207 C 24.431 6.439 22.087 7.823 20.222 6.698 C 18.357 5.572 18.37 2.783 20.245 1.676 C 20.672 1.423 21.156 1.292 21.648 1.294 C 23.196 1.303 24.445 2.607 24.441 4.207 M 20.226 4.207 C 20.226 5.329 21.4 6.029 22.34 5.468 C 22.775 5.209 23.044 4.727 23.044 4.207 C 23.044 3.086 21.87 2.384 20.931 2.946 C 20.495 3.206 20.226 3.688 20.226 4.207 M 29.879 6.346 C 30.91 8.423 31.721 10.609 32.3 12.864 L 28.409 14.075 C 27.903 11.774 27.159 9.534 26.189 7.398 Z M 44.394 6.785 C 44.23 7.298 44.105 7.824 44.021 8.357 C 43.519 11.339 42.458 14.192 40.9 16.756 C 39.514 18.848 37.732 20.629 35.662 21.989 C 34.685 22.617 33.678 23.193 32.644 23.716 C 31.943 22.347 31.014 21.116 29.9 20.081 C 34.912 18.07 37.632 15.491 39.177 11.213 C 39.814 9.47 40.185 7.635 40.277 5.775 Z M 35.365 5.259 C 36.429 7.24 37.242 9.354 37.785 11.548 L 33.969 12.761 C 33.46 10.522 32.707 8.352 31.724 6.29 Z M 59.384 0.877 C 59.265 1.081 59.164 1.297 59.084 1.521 C 59.034 1.599 58.984 1.753 58.909 1.909 C 58.809 2.165 58.734 2.346 58.685 2.45 C 58.361 3.197 58.361 3.197 58.185 3.558 L 64.445 3.48 C 65.073 3.531 65.704 3.434 66.291 3.197 L 68.361 5.311 C 68.029 5.879 67.785 6.496 67.638 7.142 C 66.64 10.885 64.879 14.366 62.475 17.348 C 59.926 20.234 56.794 22.506 53.3 23.999 C 52.581 22.489 51.56 21.153 50.306 20.081 C 53.431 19 56.278 17.203 58.636 14.823 C 60.566 12.759 61.994 10.249 62.8 7.502 L 56.167 7.579 C 54.675 10.074 52.756 12.266 50.505 14.049 C 49.524 12.797 48.323 11.747 46.964 10.957 C 49.801 8.978 52.089 6.268 53.6 3.094 C 54.122 2.132 54.484 1.086 54.67 0 Z M 70.833 9.487 C 72.529 9.692 74.238 9.769 75.945 9.719 L 87.866 9.719 C 89.573 9.751 91.28 9.674 92.978 9.487 L 92.978 14.463 C 91.27 14.317 89.555 14.263 87.841 14.307 L 75.969 14.307 C 73.176 14.307 72.353 14.333 70.832 14.463 Z M 104.433 11.986 C 104.441 15.01 101.28 16.91 98.743 15.405 C 96.205 13.901 96.194 10.122 98.724 8.602 C 99.306 8.252 99.968 8.069 100.641 8.07 C 102.734 8.071 104.43 9.823 104.433 11.986 M 117.627 3.144 C 117.586 3.279 117.561 3.417 117.552 3.558 C 117.495 3.795 117.462 4.037 117.452 4.281 L 117.377 4.798 L 117.277 5.392 C 116.277 13.279 114.384 18.642 111.092 22.818 C 109.887 21.599 108.518 20.566 107.028 19.751 C 110.419 16.193 112.764 9.155 112.889 2.273 Z M 124.9 2.243 L 124.9 2.321 C 125.048 4.217 125.349 6.096 125.8 7.94 C 126.709 12.206 128.58 16.189 131.261 19.565 C 129.801 20.444 128.474 21.537 127.321 22.814 C 124.004 18.302 121.834 12.347 120.886 5.13 C 120.861 4.873 120.836 4.691 120.836 4.639 L 120.661 3.661 L 120.636 3.403 L 120.536 3.093 Z M 131.459 4.207 C 131.45 6.44 129.106 7.825 127.24 6.7 C 125.374 5.575 125.385 2.785 127.26 1.677 C 127.688 1.423 128.173 1.292 128.666 1.294 C 130.214 1.304 131.463 2.607 131.459 4.207 M 127.245 4.207 C 127.245 5.329 128.419 6.029 129.359 5.468 C 129.794 5.209 130.063 4.727 130.063 4.207 C 130.063 3.086 128.889 2.384 127.95 2.946 C 127.514 3.206 127.245 3.688 127.245 4.207 M 136.897 6.346 C 137.928 8.424 138.738 10.611 139.315 12.868 L 135.425 14.08 C 134.918 11.778 134.174 9.539 133.205 7.402 Z M 151.412 6.785 C 151.248 7.299 151.123 7.824 151.038 8.357 C 150.538 11.342 149.479 14.195 147.92 16.76 C 146.534 18.853 144.752 20.634 142.682 21.993 C 141.705 22.623 140.698 23.198 139.664 23.72 C 138.964 22.35 138.035 21.12 136.921 20.085 C 141.934 18.074 144.652 15.496 146.199 11.217 C 146.836 9.474 147.207 7.639 147.299 5.779 Z M 142.384 5.264 C 143.448 7.245 144.261 9.359 144.802 11.553 L 140.986 12.766 C 140.478 10.528 139.725 8.357 138.742 6.295 Z M 166.4 0.877 C 166.281 1.081 166.18 1.297 166.1 1.521 C 166.05 1.599 166 1.753 165.925 1.909 C 165.825 2.165 165.75 2.346 165.701 2.45 C 165.377 3.197 165.377 3.197 165.201 3.558 L 171.46 3.48 C 172.088 3.531 172.719 3.434 173.306 3.197 L 175.375 5.311 C 175.043 5.879 174.799 6.497 174.652 7.142 C 173.655 10.886 171.895 14.366 169.49 17.348 C 166.941 20.235 163.807 22.507 160.312 24 C 159.593 22.491 158.573 21.155 157.32 20.082 C 160.444 19 163.292 17.204 165.649 14.824 C 167.579 12.76 169.007 10.25 169.814 7.503 L 163.18 7.58 C 161.688 10.074 159.77 12.267 157.519 14.05 C 156.538 12.798 155.336 11.747 153.977 10.957 C 156.813 8.978 159.1 6.268 160.611 3.095 C 161.136 2.133 161.502 1.086 161.692 0 Z M 177.849 9.487 C 179.545 9.692 181.254 9.769 182.961 9.719 L 194.882 9.719 C 196.591 9.751 198.3 9.674 200 9.487 L 200 14.463 C 198.291 14.317 196.576 14.263 194.862 14.307 L 182.991 14.307 C 180.197 14.307 179.374 14.333 177.853 14.463 Z" fill="#4b4b4b"/>
</svg>