<?xml version="1.0" encoding="utf-8"?>
<svg xmlns="http://www.w3.org/2000/svg">
  <path id="Path_22" data-name="Path 22" d="M 22.048 0.306 L 38.381 0.306 L 38.381 1.893 L 22.048 1.893 Z M 120.224 1.011 L 116.93 1.011 C 116.3 1.011 115.907 1.674 116.222 2.204 C 116.368 2.45 116.638 2.601 116.93 2.601 L 118.911 2.601 L 118.911 15.101 C 118.858 15.808 119.612 16.305 120.268 15.996 C 120.617 15.832 120.828 15.477 120.8 15.101 L 120.8 1.503 C 120.8 1.124 120.662 1.011 120.224 1.011 M 136.124 8.47 C 136.124 12.995 134.05 16.086 131.055 16.086 C 128.06 16.086 125.985 12.995 125.985 8.538 C 125.985 3.969 128.036 0.877 131.055 0.877 C 134.055 0.877 136.124 3.968 136.124 8.47 M 134.096 8.493 C 134.096 4.729 132.967 2.466 131.054 2.466 C 129.164 2.466 128.012 4.701 128.012 8.425 C 128.012 12.255 129.141 14.496 131.054 14.496 C 132.943 14.496 134.096 12.233 134.096 8.493 M 150 8.47 C 150 12.995 147.926 16.086 144.93 16.086 C 141.934 16.086 139.86 12.995 139.86 8.538 C 139.86 3.969 141.911 0.877 144.93 0.877 C 147.93 0.877 150 3.968 150 8.47 M 147.972 8.493 C 147.972 4.729 146.843 2.466 144.93 2.466 C 143.04 2.466 141.888 4.701 141.888 8.425 C 141.888 12.255 143.017 14.496 144.93 14.496 C 146.82 14.496 147.972 12.233 147.972 8.493 M 0 20.103 C 0.011 31.06 9.144 39.94 20.415 39.952 L 20.415 25.662 C 16.014 25.662 13.263 21.032 15.464 17.327 C 16.485 15.608 18.373 14.548 20.415 14.548 L 20.415 0.258 C 9.145 0.27 0.013 9.148 0 20.103 M 89.011 0.258 L 89.011 14.547 C 93.412 14.547 96.163 19.179 93.962 22.884 C 92.941 24.602 91.053 25.661 89.011 25.661 L 89.011 39.952 C 104.727 39.952 114.55 23.415 106.692 10.183 C 103.045 4.043 96.305 0.26 89.011 0.26 M 85.761 39.696 L 87.361 39.696 L 87.361 0 L 85.761 0 Z M 82.494 39.696 L 84.094 39.696 L 84.094 0 L 82.494 0 Z M 79.228 39.696 L 80.828 39.696 L 80.828 0 L 79.228 0 Z M 75.962 39.696 L 77.562 39.696 L 77.562 0 L 75.962 0 Z M 72.696 39.696 L 74.296 39.696 L 74.296 0 L 72.7 0 Z M 62.896 39.696 L 64.496 39.696 L 64.496 0 L 62.9 0 Z M 59.629 39.696 L 61.229 39.696 L 61.229 0 L 59.629 0 Z M 56.363 39.696 L 57.963 39.696 L 57.963 0 L 56.363 0 Z M 53.097 39.696 L 54.697 39.696 L 54.697 0 L 53.1 0 Z M 49.831 39.696 L 51.431 39.696 L 51.431 0 L 49.831 0 Z M 46.564 39.696 L 48.164 39.696 L 48.164 0 L 46.564 0 Z M 22.049 40 L 38.381 40 L 38.381 38.41 L 22.048 38.41 Z M 22.049 36.824 L 38.381 36.824 L 38.381 35.234 L 22.048 35.234 Z M 22.049 33.65 L 38.381 33.65 L 38.381 32.06 L 22.048 32.06 Z M 22.049 30.473 L 38.381 30.473 L 38.381 28.884 L 22.048 28.884 Z M 22.049 27.299 L 38.381 27.299 L 38.381 25.708 L 22.048 25.708 Z M 22.049 14.597 L 38.381 14.597 L 38.381 13.007 L 22.048 13.007 Z M 22.049 11.421 L 38.381 11.421 L 38.381 9.831 L 22.048 9.831 Z M 22.049 8.247 L 38.381 8.247 L 38.381 6.656 L 22.048 6.656 Z M 22.049 5.072 L 38.381 5.072 L 38.381 3.481 L 22.048 3.481 Z" fill="#4b4b4b"/>
</svg>